<svg width="25" height="33" viewBox="0 0 25 33" fill="none" xmlns="http://www.w3.org/2000/svg">
<path d="M23.7312 19.0546L17.1129 16.5532C16.9935 16.4999 16.8148 16.4999 16.6954 16.5532C16.576 16.6064 16.4569 16.7127 16.4569 16.8193L12.5812 30.8176L8.64584 16.8193C8.58621 16.7127 8.52644 16.6064 8.40733 16.5532C8.28808 16.4999 8.16898 16.4999 7.98995 16.5532L1.43104 18.7884C0.536638 19.1079 0 19.7467 0 20.4918V32.5742C0 32.787 0.238506 32.9999 0.476863 32.9999H24.5066C24.745 32.9999 24.9834 32.8404 24.9834 32.5742V20.7579C25.1028 20.0661 24.5662 19.3741 23.7312 19.0546Z" fill="#828282"/>
<path d="M14.6681 17.7775C14.9662 17.3517 14.9066 16.7662 14.489 16.3935C14.2506 16.1273 13.8928 16.0211 13.4756 16.0211H11.6868C11.329 16.0211 10.9114 16.1806 10.673 16.3935C10.3152 16.7662 10.1961 17.2984 10.4943 17.7774L10.9711 18.4162C11.2096 18.7886 11.329 19.1613 11.2693 19.587L10.9711 22.3549L11.8655 24.5372C11.9849 24.8033 12.2234 24.963 12.5812 24.963C12.939 24.963 13.1775 24.8033 13.2965 24.5372L14.1909 22.3549L13.8334 19.6404C13.7737 19.2146 13.8928 18.7886 14.1316 18.4695L14.6681 17.7775ZM12.5811 14.7967C16.5166 14.7967 19.7363 11.9225 19.7363 8.40957V6.38711C19.7363 2.8742 16.5166 0 12.5811 0C8.64563 0 5.42595 2.8742 5.42595 6.38711V8.40957C5.42595 11.9225 8.64578 14.7967 12.5811 14.7967Z" fill="#828282"/>
</svg>
