<svg width="24" height="24" viewBox="0 0 24 24" fill="none" xmlns="http://www.w3.org/2000/svg">
<g clip-path="url(#clip0_19_429)">
<path d="M23.0279 12.2245C23.0279 11.2413 22.9495 10.5238 22.7798 9.77966H11.7495V14.2176H18.2241C18.0936 15.3205 17.3887 16.9815 15.8222 18.0976L15.8003 18.2462L19.2878 20.9964L19.5295 21.0209C21.7486 18.9347 23.0279 15.8653 23.0279 12.2245" fill="#4285F4"/>
<path d="M11.7495 23.9176C14.9215 23.9176 17.5844 22.8545 19.5295 21.0209L15.8222 18.0976C14.8302 18.8018 13.4986 19.2934 11.7495 19.2934C8.64274 19.2934 6.00592 17.2074 5.06597 14.324L4.92819 14.3359L1.30174 17.1927L1.25432 17.3269C3.18624 21.2334 7.15457 23.9176 11.7495 23.9176Z" fill="#34A853"/>
<path d="M5.06609 14.3239C4.81808 13.5798 4.67454 12.7825 4.67454 11.9587C4.67454 11.1349 4.81808 10.3376 5.05305 9.59354L5.04648 9.43507L1.37459 6.53235L1.25445 6.59052C0.45821 8.21162 0.00132751 10.032 0.00132751 11.9587C0.00132751 13.8854 0.45821 15.7058 1.25445 17.3269L5.06609 14.3239" fill="#FBBC05"/>
<path d="M11.7495 4.62403C13.9555 4.62403 15.4436 5.59401 16.2921 6.40461L19.6077 3.10928C17.5714 1.1826 14.9215 0 11.7495 0C7.15456 0 3.18624 2.68406 1.25432 6.59056L5.05292 9.59359C6.00592 6.7102 8.64274 4.62403 11.7495 4.62403" fill="#EB4335"/>
</g>
<defs>
<clipPath id="clip0_19_429">
<rect width="23.04" height="24" fill="white"/>
</clipPath>
</defs>
</svg>
