<svg width="302" height="328" viewBox="0 0 302 328" fill="none" xmlns="http://www.w3.org/2000/svg">
<path d="M167.628 51.2527L174.061 52.4237L167.985 44.8746L167.628 51.2527Z" fill="#53A07C"/>
<path d="M167.985 44.8746L167.628 51.2527L197.384 88.2012L197.741 81.8231L167.985 44.8746Z" fill="#4C8C6C"/>
<path d="M182.012 62.5059C182.055 62.4921 182.095 62.4695 182.128 62.4395C182.162 62.4128 182.189 62.3799 182.21 62.3425C182.231 62.305 182.243 62.2639 182.248 62.2215C182.253 62.179 182.249 62.1361 182.237 62.0951C182.225 62.0541 182.205 62.0159 182.178 61.9827L168.234 44.667C168.18 44.5998 168.102 44.5569 168.016 44.5475C167.931 44.5382 167.845 44.5632 167.778 44.6172C167.71 44.6711 167.667 44.7496 167.658 44.8352C167.649 44.9209 167.674 45.0068 167.728 45.0739L181.672 62.3897C181.711 62.4397 181.764 62.4773 181.825 62.4979C181.885 62.5185 181.95 62.5213 182.012 62.5059Z" fill="#010101"/>
<path d="M180.095 49.8326L195.923 69.4903L195.989 69.4322C197.322 68.3574 199.026 67.8553 200.728 68.0359C202.43 68.2165 203.992 69.065 205.069 70.3955L224.292 54.9318C220.431 55.6213 216.455 55.2594 212.781 53.884C209.108 52.5086 205.871 50.1703 203.41 47.1139C200.95 44.0575 199.355 40.3953 198.794 36.5108C198.234 32.6264 198.727 28.6625 200.222 25.0342L180.941 40.5892L181.099 40.7719C182.163 42.1083 182.654 43.8117 182.466 45.5097C182.278 47.2077 181.425 48.762 180.095 49.8326Z" fill="#BDE2D1"/>
<path d="M158.83 56.1776L150.538 51.1614L152.381 57.2738L158.83 56.1776Z" fill="#53A07C"/>
<path d="M192.96 81.8314L191.117 75.719L150.538 51.1614L152.381 57.2738L192.96 81.8314Z" fill="#4C8C6C"/>
<path d="M169.388 62.9462C169.44 62.9786 169.5 62.9957 169.562 62.9957C169.624 62.9957 169.684 62.9786 169.736 62.9462C169.777 62.9241 169.809 62.889 169.828 62.8466C169.851 62.8105 169.868 62.7698 169.875 62.7272C169.883 62.6846 169.881 62.6409 169.871 62.5989C169.861 62.5568 169.842 62.5173 169.816 62.4828C169.79 62.4482 169.757 62.4194 169.72 62.3981L150.704 50.8875C150.668 50.8651 150.627 50.8502 150.585 50.8435C150.543 50.8368 150.5 50.8386 150.458 50.8486C150.416 50.8586 150.377 50.8768 150.343 50.902C150.308 50.9272 150.279 50.9589 150.256 50.9955C150.234 51.032 150.219 51.0726 150.212 51.1149C150.206 51.1572 150.207 51.2004 150.217 51.2421C150.227 51.2837 150.246 51.323 150.271 51.3576C150.296 51.3922 150.328 51.4216 150.364 51.4439L169.388 62.9462Z" fill="#010101"/>
<path d="M161.411 42.8316C161.345 42.79 161.27 42.7485 160.025 48.3792L162.739 43.8946C162.344 43.4848 161.898 43.1275 161.411 42.8316Z" fill="#BDE2D1"/>
<path d="M185.199 64.7484C185.216 64.7224 185.23 64.6946 185.241 64.6653C186.13 63.2014 187.563 62.1491 189.225 61.7383C190.888 61.3275 192.645 61.5916 194.113 62.4728L206.862 41.3784C203.468 43.3517 199.605 44.3745 195.68 44.3395C191.754 44.3044 187.91 43.2128 184.552 41.1791C177.472 36.8854 173.662 29.2283 172.832 27.1687L162.723 43.8948C163.699 44.9193 164.313 46.2352 164.472 47.6417C164.631 49.0482 164.326 50.4681 163.603 51.6848L185.199 64.7484Z" fill="#BDE2D1"/>
<path d="M28.4955 20.1677L28.4955 262.147H214.847L214.847 20.1677H28.4955Z" fill="white"/>
<path d="M208.381 15.7245H35.9655C33.051 15.7245 30.2558 16.883 28.1949 18.9451C26.1341 21.0072 24.9763 23.804 24.9763 26.7202V261.4C24.9763 264.316 26.1341 267.113 28.1949 269.175C30.2558 271.237 33.051 272.396 35.9655 272.396H208.381C211.296 272.396 214.091 271.237 216.152 269.175C218.213 267.113 219.37 264.316 219.37 261.4V26.7202C219.37 23.804 218.213 21.0072 216.152 18.9451C214.091 16.883 211.296 15.7245 208.381 15.7245ZM214.838 258.319C214.84 259.104 214.686 259.881 214.387 260.606C214.087 261.332 213.648 261.991 213.094 262.546C212.539 263.102 211.881 263.542 211.156 263.843C210.432 264.144 209.655 264.298 208.871 264.298H35.4758C33.8908 264.298 32.3708 263.668 31.2501 262.547C30.1294 261.426 29.4998 259.905 29.4998 258.319V26.8364C29.4998 25.0744 30.1994 23.3845 31.4446 22.1385C32.6898 20.8925 34.3787 20.1925 36.1398 20.1925H208.182C209.943 20.1925 211.632 20.8925 212.877 22.1385C214.122 23.3845 214.822 25.0744 214.822 26.8364L214.838 258.319Z" fill="#223849"/>
<g opacity="0.5">
<path d="M37.0445 56.7921L37.0445 231.319C37.0445 245.997 48.9358 257.895 63.6044 257.895H180.726C195.394 257.895 207.285 245.997 207.285 231.319V56.7921C207.285 42.1147 195.394 30.2164 180.726 30.2164H63.6044C48.9358 30.2164 37.0445 42.1147 37.0445 56.7921Z" fill="#CBE4DE"/>
</g>
<path d="M114.89 65.5288H59.0311V133.587H114.89V65.5288Z" fill="white"/>
<path d="M87.7242 87.2215C87.7143 87.1704 87.6869 87.1244 87.6467 87.0914C87.6066 87.0583 87.5562 87.0402 87.5043 87.0402C87.4523 87.0402 87.4019 87.0583 87.3618 87.0914C87.3216 87.1244 87.2943 87.1704 87.2843 87.2215C87.278 87.254 87.2789 87.2874 87.287 87.3195C87.2951 87.3516 87.3103 87.3815 87.3313 87.407C87.3523 87.4325 87.3787 87.4531 87.4086 87.4673C87.4385 87.4814 87.4712 87.4887 87.5043 87.4887C87.5373 87.4887 87.57 87.4814 87.5999 87.4673C87.6298 87.4531 87.6562 87.4325 87.6772 87.407C87.6982 87.3815 87.7134 87.3516 87.7215 87.3195C87.7296 87.2874 87.7305 87.254 87.7242 87.2215Z" fill="#D8E4F4"/>
<path d="M87.7242 88.9736C87.7242 88.9293 87.711 88.8859 87.6864 88.849C87.6618 88.8122 87.6268 88.7834 87.5858 88.7664C87.5449 88.7495 87.4998 88.745 87.4564 88.7537C87.4129 88.7624 87.373 88.7837 87.3416 88.8151C87.3103 88.8464 87.2889 88.8864 87.2803 88.9299C87.2716 88.9734 87.2761 89.0185 87.293 89.0594C87.31 89.1004 87.3387 89.1354 87.3756 89.1601C87.4124 89.1847 87.4558 89.1978 87.5001 89.1978C87.5595 89.1978 87.6165 89.1742 87.6585 89.1322C87.7006 89.0901 87.7242 89.0331 87.7242 88.9736Z" fill="#D8E4F4"/>
<path d="M87.7242 90.7343C87.7305 90.7018 87.7296 90.6683 87.7215 90.6363C87.7134 90.6042 87.6982 90.5743 87.6772 90.5488C87.6562 90.5232 87.6298 90.5027 87.5999 90.4885C87.57 90.4744 87.5373 90.4671 87.5043 90.4671C87.4712 90.4671 87.4385 90.4744 87.4086 90.4885C87.3787 90.5027 87.3523 90.5232 87.3313 90.5488C87.3103 90.5743 87.2951 90.6042 87.287 90.6363C87.2789 90.6683 87.278 90.7018 87.2843 90.7343C87.2943 90.7853 87.3216 90.8313 87.3618 90.8644C87.4019 90.8975 87.4523 90.9156 87.5043 90.9156C87.5562 90.9156 87.6066 90.8975 87.6467 90.8644C87.6869 90.8313 87.7143 90.7853 87.7242 90.7343Z" fill="#D8E4F4"/>
<path d="M87.7242 92.5282C87.7242 92.4839 87.711 92.4405 87.6864 92.4037C87.6618 92.3668 87.6268 92.338 87.5858 92.3211C87.5449 92.3041 87.4998 92.2997 87.4564 92.3083C87.4129 92.317 87.373 92.3383 87.3416 92.3697C87.3103 92.401 87.2889 92.441 87.2803 92.4845C87.2716 92.528 87.2761 92.5731 87.293 92.6141C87.31 92.655 87.3387 92.69 87.3756 92.7147C87.4124 92.7393 87.4558 92.7525 87.5001 92.7525C87.5595 92.7525 87.6165 92.7288 87.6585 92.6868C87.7006 92.6447 87.7242 92.5877 87.7242 92.5282Z" fill="#D8E4F4"/>
<path d="M87.7242 94.2391C87.7242 94.1947 87.711 94.1514 87.6864 94.1145C87.6618 94.0776 87.6268 94.0489 87.5858 94.0319C87.5449 94.0149 87.4998 94.0105 87.4564 94.0191C87.4129 94.0278 87.373 94.0491 87.3416 94.0805C87.3103 94.1119 87.2889 94.1518 87.2803 94.1953C87.2716 94.2388 87.2761 94.2839 87.293 94.3249C87.31 94.3658 87.3387 94.4009 87.3756 94.4255C87.4124 94.4501 87.4558 94.4633 87.5001 94.4633C87.5595 94.4633 87.6165 94.4397 87.6585 94.3976C87.7006 94.3556 87.7242 94.2985 87.7242 94.2391Z" fill="#D8E4F4"/>
<path d="M114.89 146.693H59.0311V214.751H114.89V146.693Z" fill="white"/>
<path d="M185.315 146.693H129.457V214.751H185.315V146.693Z" fill="white"/>
<path d="M145.052 194.679L148.505 191.913C148.521 191.898 148.534 191.88 148.543 191.86C148.552 191.84 148.556 191.819 148.556 191.797C148.556 191.775 148.552 191.753 148.543 191.733C148.534 191.713 148.521 191.695 148.505 191.681C148.49 191.666 148.473 191.654 148.454 191.646C148.434 191.638 148.414 191.634 148.393 191.634C148.372 191.634 148.351 191.638 148.332 191.646C148.313 191.654 148.296 191.666 148.281 191.681L144.828 194.454C144.812 194.468 144.799 194.486 144.791 194.505C144.782 194.524 144.778 194.545 144.778 194.566C144.778 194.588 144.782 194.609 144.791 194.628C144.799 194.647 144.812 194.665 144.828 194.679C144.842 194.699 144.861 194.715 144.883 194.727C144.904 194.738 144.928 194.744 144.953 194.745C144.973 194.741 144.992 194.734 145.009 194.722C145.026 194.711 145.041 194.696 145.052 194.679Z" fill="white"/>
<path d="M156.589 190.21C160.761 190.21 164.142 186.827 164.142 182.653C164.142 178.479 160.761 175.095 156.589 175.095C152.418 175.095 149.036 178.479 149.036 182.653C149.036 186.827 152.418 190.21 156.589 190.21Z" fill="white"/>
<path d="M162.134 195.31C162.166 195.32 162.201 195.32 162.233 195.31L167.213 191.514C167.247 191.489 167.27 191.451 167.276 191.409C167.282 191.367 167.272 191.324 167.246 191.29C167.221 191.256 167.183 191.233 167.141 191.227C167.099 191.221 167.056 191.231 167.022 191.257L162.042 195.052C162.027 195.067 162.016 195.084 162.008 195.103C162 195.123 161.996 195.143 161.996 195.164C161.996 195.185 162 195.206 162.008 195.225C162.016 195.244 162.027 195.262 162.042 195.276C162.068 195.297 162.1 195.309 162.134 195.31Z" fill="white"/>
<path d="M165.844 194.579L169.297 191.805C169.316 191.792 169.332 191.776 169.345 191.756C169.357 191.737 169.365 191.715 169.369 191.692C169.372 191.669 169.371 191.646 169.365 191.623C169.359 191.601 169.349 191.58 169.334 191.562C169.32 191.544 169.301 191.529 169.281 191.519C169.26 191.508 169.238 191.502 169.215 191.501C169.192 191.499 169.169 191.503 169.147 191.511C169.125 191.519 169.106 191.531 169.089 191.548L165.636 194.321C165.608 194.353 165.592 194.395 165.592 194.438C165.592 194.481 165.608 194.522 165.636 194.554C165.672 194.589 165.719 194.61 165.769 194.612C165.796 194.608 165.822 194.596 165.844 194.579Z" fill="white"/>
<path d="M183.987 65.5288H128.128V133.587H183.987V65.5288Z" fill="white"/>
<g opacity="0.5">
<path d="M161.893 96.7637H149.684V100.717H161.893V96.7637Z" fill="#F3FAFA"/>
</g>
<g opacity="0.5">
<path d="M161.893 104.645H149.684V105.044H161.893V104.645Z" fill="#F3FAFA"/>
</g>
<path d="M196.072 53.0883H187.772L187.017 49.3013L196.072 48.9276L197.342 43.6124L185.813 43.3052L185.257 40.5396H182.103C182.05 40.5316 181.996 40.5352 181.944 40.5501C181.893 40.565 181.845 40.5909 181.804 40.626C181.763 40.661 181.731 40.7045 181.708 40.7534C181.686 40.8023 181.674 40.8554 181.674 40.9092C181.674 40.963 181.686 41.0161 181.708 41.065C181.731 41.1139 181.763 41.1573 181.804 41.1924C181.845 41.2275 181.893 41.2534 181.944 41.2683C181.996 41.2832 182.05 41.2868 182.103 41.2788H184.651L187.141 53.8192H196.072C196.171 53.8192 196.266 53.7798 196.336 53.7097C196.406 53.6396 196.446 53.5445 196.446 53.4454C196.446 53.3463 196.406 53.2512 196.336 53.1812C196.266 53.1111 196.171 53.0717 196.072 53.0717V53.0883Z" fill="white"/>
<path d="M188.362 54.3258C188.136 54.3258 187.916 54.3928 187.729 54.5182C187.542 54.6436 187.396 54.8218 187.31 55.0301C187.224 55.2385 187.202 55.4677 187.247 55.6886C187.292 55.9096 187.401 56.1123 187.56 56.2711C187.72 56.4299 187.924 56.5376 188.145 56.5805C188.366 56.6235 188.595 56.5997 188.802 56.5124C189.01 56.425 189.187 56.2779 189.311 56.0897C189.435 55.9015 189.5 55.6807 189.499 55.4553C189.499 55.3063 189.469 55.1587 189.412 55.0211C189.355 54.8836 189.271 54.7587 189.165 54.6537C189.059 54.5487 188.934 54.4657 188.796 54.4094C188.658 54.3532 188.51 54.3247 188.362 54.3258Z" fill="white"/>
<path d="M194.819 54.3258C194.594 54.3242 194.373 54.3895 194.185 54.5135C193.997 54.6376 193.85 54.8147 193.762 55.0224C193.675 55.2302 193.651 55.4592 193.694 55.6805C193.737 55.9017 193.845 56.1052 194.004 56.2651C194.162 56.4251 194.365 56.5343 194.586 56.5789C194.807 56.6234 195.036 56.6014 195.244 56.5156C195.452 56.4297 195.63 56.2839 195.756 56.0966C195.881 55.9093 195.948 55.689 195.948 55.4636C195.948 55.1633 195.829 54.8751 195.618 54.662C195.406 54.4489 195.119 54.328 194.819 54.3258Z" fill="white"/>
<path d="M144.745 230.796H98.5889C94.0003 230.796 90.2806 234.518 90.2806 239.11V239.118C90.2806 243.709 94.0003 247.431 98.5889 247.431H144.745C149.334 247.431 153.053 243.709 153.053 239.118V239.11C153.053 234.518 149.334 230.796 144.745 230.796Z" fill="#11A2A8"/>
<path d="M116.508 237.922C116.722 237.57 116.826 237.162 116.807 236.751C116.829 236.431 116.768 236.11 116.632 235.82C116.495 235.529 116.287 235.278 116.027 235.09C115.337 234.671 114.533 234.477 113.728 234.534H111.105V243.536H114.068C114.888 243.596 115.703 243.37 116.376 242.897C116.639 242.655 116.843 242.357 116.974 242.024C117.105 241.692 117.158 241.334 117.131 240.978C117.15 240.493 117.017 240.013 116.749 239.608C116.439 239.205 116.018 238.902 115.537 238.736V238.694C115.93 238.538 116.268 238.269 116.508 237.922ZM115.678 239.583C115.883 239.747 116.044 239.958 116.148 240.198C116.252 240.439 116.296 240.701 116.276 240.962C116.291 241.214 116.247 241.467 116.149 241.7C116.052 241.933 115.902 242.141 115.712 242.307C115.254 242.65 114.689 242.818 114.118 242.78H111.952V239.126H113.861C114.502 239.092 115.137 239.267 115.67 239.625L115.678 239.583ZM115.446 237.997C115.016 238.302 114.494 238.448 113.969 238.412H111.943V235.223H113.728C114.309 235.185 114.888 235.324 115.388 235.622C115.573 235.758 115.72 235.94 115.816 236.149C115.912 236.358 115.953 236.588 115.936 236.818C115.957 237.046 115.923 237.276 115.836 237.489C115.749 237.701 115.613 237.89 115.438 238.038L115.446 237.997Z" fill="white"/>
<path d="M118.974 234.542V240.605C118.947 241.023 119.007 241.443 119.15 241.837C119.292 242.232 119.515 242.592 119.804 242.897C120.46 243.479 121.319 243.777 122.194 243.727C122.625 243.752 123.057 243.692 123.464 243.55C123.871 243.407 124.247 243.185 124.568 242.897C124.856 242.592 125.079 242.232 125.222 241.837C125.365 241.443 125.425 241.023 125.398 240.605V234.542H124.568V240.605C124.595 240.933 124.554 241.264 124.448 241.576C124.341 241.888 124.17 242.174 123.947 242.417C123.724 242.66 123.453 242.854 123.151 242.986C122.85 243.119 122.524 243.187 122.194 243.187C121.864 243.187 121.539 243.119 121.237 242.986C120.935 242.854 120.664 242.66 120.441 242.417C120.218 242.174 120.047 241.888 119.941 241.576C119.834 241.264 119.793 240.933 119.82 240.605V234.542H118.974Z" fill="white"/>
<path d="M130.477 243.536V239.849L133.225 234.534H132.345L130.037 238.852L127.763 234.534H126.883L129.639 239.849L129.647 243.536H130.477Z" fill="white"/>
<path d="M197.359 45.4561C199.885 45.4561 201.932 43.4073 201.932 40.8801C201.932 38.3528 199.885 36.3041 197.359 36.3041C194.833 36.3041 192.785 38.3528 192.785 40.8801C192.785 43.4073 194.833 45.4561 197.359 45.4561Z" fill="#F4A121"/>
<path d="M197.873 43.4795V42.0593H195.458V41.6025L197.774 38.2806H198.562V41.5112H199.284V42.0593H198.562V43.4795H197.873ZM197.873 41.5112V39.7755C197.873 39.5014 197.873 39.2357 197.873 38.945C197.716 39.244 197.583 39.4682 197.442 39.709L196.172 41.478L197.873 41.5112Z" fill="white"/>
<path d="M58.9896 35.2244L49.2122 0.883678C49.1657 0.727521 49.0887 0.582116 48.9859 0.455786C48.883 0.329456 48.7562 0.224686 48.6128 0.14752C48.4693 0.0703547 48.312 0.022312 48.15 0.00612316C47.9879 -0.0100657 47.8243 0.00592184 47.6684 0.0531879L0.881404 13.341C0.566857 13.4388 0.303426 13.6566 0.148101 13.9472C-0.00722489 14.2378 -0.0419584 14.578 0.0514052 14.894L9.82879 49.2348C9.87534 49.3909 9.95227 49.5364 10.0551 49.6627C10.158 49.789 10.2848 49.8938 10.4283 49.9709C10.5717 50.0481 10.729 50.0962 10.891 50.1124C11.0531 50.1286 11.2167 50.1125 11.3726 50.0653L43.0536 41.0462C45.4938 42.8649 49.1375 45.5225 49.1209 45.3564C49.1043 45.1903 47.9672 42.2088 47.0874 39.9001L58.1596 36.7442C58.4644 36.6429 58.7195 36.4297 58.8735 36.1477C59.0275 35.8657 59.069 35.5358 58.9896 35.2244Z" fill="#FFB56D"/>
<path d="M34.7205 16.3972L31.7989 18.4734C31.2942 17.8291 30.6346 17.3234 29.8816 17.0035C29.1749 16.7737 28.4136 16.7737 27.707 17.0035C27.0507 17.1529 26.465 17.5221 26.047 18.0499C25.8748 18.2861 25.761 18.5598 25.7148 18.8485C25.6687 19.1372 25.6915 19.4327 25.7814 19.7109C26.0387 20.6742 27.3833 21.2805 29.8069 21.5462C30.5456 21.621 31.1349 21.6957 31.5582 21.7539C33.1033 21.8632 34.6027 22.3263 35.9406 23.1076C36.8801 23.8212 37.536 24.8454 37.7915 25.9977C38.0424 26.7614 38.1198 27.5715 38.0178 28.369C37.9159 29.1664 37.6372 29.931 37.2021 30.6069C36.4315 31.7107 35.3385 32.549 34.0731 33.007L34.7786 35.5981L31.6246 36.4286L30.9025 33.7295C29.9739 33.8039 29.0395 33.7053 28.1469 33.4389C26.6732 32.9693 25.386 32.0447 24.47 30.7979L27.3169 28.4642C27.9336 29.2175 28.7143 29.8198 29.5994 30.2249C30.3748 30.4922 31.212 30.5237 32.0053 30.3152C32.7985 30.1068 33.5123 29.6679 34.0565 29.0539C34.2709 28.7744 34.4146 28.4472 34.4753 28.1001C34.536 27.753 34.5119 27.3964 34.4051 27.0607C34.3377 26.7842 34.2126 26.5251 34.0381 26.3004C33.8636 26.0757 33.6436 25.8904 33.3925 25.7568C32.6068 25.4068 31.7618 25.2095 30.9025 25.1755L30.2136 25.1173C28.7389 25.0457 27.2757 24.8202 25.8478 24.4446C25.0328 24.2036 24.2948 23.7542 23.7064 23.1408C23.1143 22.4949 22.6897 21.7135 22.4697 20.8652C22.2567 20.1581 22.2088 19.4115 22.3297 18.6829C22.4506 17.9544 22.737 17.2633 23.1669 16.663C23.8184 15.7541 24.6971 15.0324 25.715 14.5701L25.0261 12.0787L28.1884 11.2482L28.869 13.7396C29.7839 13.6328 30.711 13.7177 31.5914 13.9888C32.8668 14.4328 33.9644 15.2776 34.7205 16.3972Z" fill="white"/>
<path d="M248.373 73.6706L243.005 88.6486C242.864 89.0415 243.068 89.4742 243.461 89.6151L268.618 98.6428C269.01 98.7837 269.443 98.5794 269.584 98.1866L274.952 83.2085C275.093 82.8156 274.889 82.3829 274.496 82.242L249.339 73.2143C248.947 73.0734 248.514 73.2777 248.373 73.6706Z" fill="#F0526A"/>
<path d="M259.302 93.093L255.5 99.0476C255.459 99.1224 255.932 92.1629 255.94 92.1047L259.302 93.093Z" fill="#F0526A"/>
<path d="M257.368 81.2169C259.858 80.5359 260.364 83.2183 260.439 83.891C260.945 83.4426 263.095 81.765 264.514 83.9409C266.423 86.8642 260.63 90.5848 257.65 91.2409C255.832 88.7494 253.998 82.1304 257.368 81.2169Z" fill="white"/>
<path d="M114.89 143.246C120.217 143.246 124.535 138.926 124.535 133.596C124.535 128.266 120.217 123.946 114.89 123.946C109.563 123.946 105.245 128.266 105.245 133.596C105.245 138.926 109.563 143.246 114.89 143.246Z" fill="#F0526A"/>
<path d="M117.845 131.129L116.442 131.653C116.31 131.327 116.095 131.04 115.82 130.822C115.563 130.649 115.258 130.561 114.948 130.573C114.651 130.549 114.356 130.635 114.118 130.814C114.023 130.89 113.947 130.988 113.897 131.099C113.847 131.21 113.823 131.331 113.828 131.453C113.828 131.868 114.301 132.284 115.255 132.641L115.944 132.915C116.557 133.127 117.111 133.48 117.563 133.945C117.865 134.338 118.018 134.827 117.994 135.323C118.012 135.659 117.953 135.995 117.824 136.305C117.695 136.616 117.498 136.893 117.247 137.117C116.816 137.481 116.282 137.701 115.72 137.748V138.869H114.351V137.69C113.837 137.604 113.356 137.383 112.955 137.051C112.554 136.718 112.248 136.286 112.068 135.797L113.479 135.166C113.642 135.541 113.892 135.871 114.209 136.129C114.481 136.334 114.815 136.44 115.156 136.428C115.507 136.449 115.856 136.349 116.143 136.145C116.259 136.055 116.351 135.939 116.413 135.806C116.475 135.673 116.505 135.528 116.5 135.381C116.505 135.262 116.483 135.143 116.437 135.033C116.391 134.922 116.322 134.823 116.235 134.742C115.949 134.511 115.622 134.337 115.272 134.227L114.998 134.127C114.421 133.931 113.865 133.678 113.338 133.372C113.033 133.186 112.784 132.922 112.616 132.608C112.445 132.283 112.36 131.92 112.367 131.553C112.358 131.244 112.421 130.937 112.551 130.656C112.681 130.375 112.873 130.128 113.114 129.933C113.477 129.635 113.912 129.437 114.375 129.36V128.272H115.753V129.36C116.134 129.417 116.499 129.553 116.824 129.759C117.31 130.087 117.67 130.57 117.845 131.129Z" fill="white"/>
<path d="M114.89 224.402C120.217 224.402 124.535 220.081 124.535 214.751C124.535 209.422 120.217 205.101 114.89 205.101C109.563 205.101 105.245 209.422 105.245 214.751C105.245 220.081 109.563 224.402 114.89 224.402Z" fill="#F0526A"/>
<path d="M117.845 212.293L116.442 212.808C116.311 212.481 116.097 212.195 115.82 211.977C115.563 211.804 115.258 211.717 114.948 211.728C114.652 211.701 114.357 211.784 114.118 211.961C114.025 212.041 113.95 212.14 113.9 212.252C113.85 212.364 113.825 212.486 113.828 212.609C113.828 213.024 114.301 213.439 115.255 213.788L115.944 214.07C116.557 214.282 117.111 214.635 117.563 215.1C117.867 215.493 118.02 215.982 117.994 216.479C118.011 216.814 117.953 217.15 117.823 217.46C117.694 217.77 117.497 218.048 117.247 218.273C116.816 218.636 116.282 218.857 115.72 218.904V220.025H114.351V218.854C113.839 218.763 113.36 218.54 112.96 218.208C112.56 217.877 112.252 217.447 112.068 216.96L113.479 216.329C113.642 216.704 113.892 217.035 114.209 217.293C114.483 217.494 114.816 217.599 115.156 217.592C115.507 217.612 115.856 217.513 116.143 217.309C116.258 217.218 116.35 217.102 116.412 216.969C116.473 216.837 116.504 216.691 116.5 216.545C116.505 216.426 116.483 216.307 116.437 216.196C116.391 216.086 116.322 215.987 116.235 215.906C115.951 215.672 115.624 215.497 115.272 215.391L114.998 215.291C114.422 215.091 113.867 214.838 113.338 214.535C113.033 214.35 112.784 214.086 112.616 213.771C112.446 213.446 112.361 213.083 112.367 212.717C112.352 212.4 112.412 212.085 112.542 211.797C112.671 211.508 112.867 211.254 113.114 211.056C113.477 210.757 113.912 210.559 114.375 210.483V209.461H115.753V210.557C116.134 210.614 116.499 210.75 116.824 210.956C117.306 211.273 117.666 211.745 117.845 212.293Z" fill="white"/>
<path d="M185.307 224.402C190.634 224.402 194.952 220.081 194.952 214.751C194.952 209.422 190.634 205.101 185.307 205.101C179.981 205.101 175.663 209.422 175.663 214.751C175.663 220.081 179.981 224.402 185.307 224.402Z" fill="#F0526A"/>
<path d="M188.096 212.293L186.685 212.808C186.554 212.483 186.343 212.198 186.071 211.977C185.81 211.805 185.503 211.718 185.191 211.728C184.895 211.704 184.601 211.787 184.361 211.961C184.268 212.041 184.193 212.14 184.143 212.252C184.093 212.364 184.068 212.486 184.07 212.609C184.07 213.024 184.552 213.439 185.498 213.788L186.187 214.07C186.812 214.281 187.38 214.633 187.847 215.1C188.148 215.495 188.301 215.983 188.279 216.479C188.295 216.814 188.237 217.15 188.108 217.46C187.978 217.77 187.782 218.048 187.532 218.273C187.097 218.636 186.561 218.857 185.996 218.904V220.025H184.618V218.854C184.107 218.763 183.627 218.54 183.227 218.208C182.827 217.877 182.52 217.447 182.336 216.96L183.747 216.329C183.912 216.703 184.162 217.032 184.477 217.293C184.764 217.483 185.1 217.584 185.444 217.584C185.788 217.584 186.124 217.483 186.411 217.293C186.527 217.203 186.62 217.087 186.682 216.954C186.744 216.821 186.773 216.675 186.768 216.529C186.772 216.409 186.751 216.29 186.705 216.18C186.659 216.069 186.59 215.97 186.502 215.889C186.22 215.654 185.892 215.478 185.54 215.374L185.274 215.274C184.697 215.078 184.141 214.825 183.614 214.519C183.309 214.333 183.06 214.069 182.892 213.755C182.723 213.429 182.635 213.067 182.635 212.7C182.62 212.384 182.679 212.069 182.809 211.78C182.939 211.491 183.135 211.237 183.382 211.039C183.744 210.74 184.18 210.543 184.643 210.466V209.461H186.013V210.557C186.396 210.614 186.763 210.75 187.092 210.956C187.563 211.281 187.915 211.75 188.096 212.293Z" fill="white"/>
<path d="M99.9546 86.8007H74.1608C73.8635 86.8 73.5771 86.9154 73.3595 87.1236C73.1418 87.3318 73.0091 87.6173 72.9883 87.9223V102.562C73.0091 102.867 73.1418 103.153 73.3595 103.361C73.5771 103.569 73.8635 103.685 74.1608 103.684H99.9546C100.252 103.685 100.538 103.569 100.756 103.361C100.974 103.153 101.106 102.867 101.127 102.562V87.9223C101.106 87.6173 100.974 87.3318 100.756 87.1236C100.538 86.9154 100.252 86.8 99.9546 86.8007ZM104.551 112.029L101.033 105.469C100.922 105.28 100.763 105.126 100.573 105.024C100.382 104.922 100.169 104.876 99.9546 104.89H74.1608C73.9479 104.874 73.7349 104.919 73.5448 105.019C73.3547 105.119 73.1947 105.27 73.0821 105.457L69.5648 112.017C69.489 112.155 69.4573 112.315 69.4741 112.473C69.4909 112.631 69.5554 112.779 69.6586 112.897C69.7829 113.038 69.9352 113.15 70.1051 113.225C70.275 113.3 70.4586 113.336 70.6434 113.331H103.472C103.654 113.336 103.835 113.3 104.002 113.228C104.17 113.155 104.321 113.046 104.445 112.909C104.55 112.793 104.617 112.645 104.636 112.487C104.655 112.329 104.625 112.169 104.551 112.029ZM89.4026 110.92H84.7128C84.4018 110.92 84.1036 110.793 83.8837 110.566C83.6639 110.34 83.5403 110.033 83.5403 109.714C83.5403 109.394 83.6639 109.087 83.8837 108.861C84.1036 108.635 84.4018 108.508 84.7128 108.508H89.4026C89.7135 108.508 90.0117 108.635 90.2316 108.861C90.4515 109.087 90.575 109.394 90.575 109.714C90.575 110.033 90.4515 110.34 90.2316 110.566C90.0117 110.793 89.7135 110.92 89.4026 110.92Z" fill="#11A2A8"/>
<path d="M148.011 98.8277V111.331H163.924V98.8277H148.011ZM158.241 103.374H153.694C153.069 103.374 152.557 102.863 152.557 102.238C152.557 101.612 153.069 101.101 153.694 101.101H158.241C158.866 101.101 159.377 101.612 159.377 102.238C159.377 102.863 158.866 103.374 158.241 103.374ZM148.011 98.8277V111.331H163.924V98.8277H148.011ZM158.241 103.374H153.694C153.069 103.374 152.557 102.863 152.557 102.238C152.557 101.612 153.069 101.101 153.694 101.101H158.241C158.866 101.101 159.377 101.612 159.377 102.238C159.377 102.863 158.866 103.374 158.241 103.374ZM141.191 94.2812V115.877C141.191 116.502 141.703 117.014 142.328 117.014H169.607C170.232 117.014 170.744 116.502 170.744 115.877V94.2812H141.191ZM166.197 112.467C166.197 113.092 165.686 113.604 165.06 113.604H146.874C146.249 113.604 145.738 113.092 145.738 112.467V97.6911C145.738 97.066 146.249 96.5545 146.874 96.5545H165.06C165.686 96.5545 166.197 97.066 166.197 97.6911V112.467ZM148.011 111.331H163.924V98.8277H148.011V111.331ZM153.694 101.101H158.241C158.866 101.101 159.377 101.612 159.377 102.238C159.377 102.863 158.866 103.374 158.241 103.374H153.694C153.069 103.374 152.557 102.863 152.557 102.238C152.557 101.612 153.069 101.101 153.694 101.101ZM169.607 85.1882H166.197V84.0515C166.197 83.4264 165.686 82.9149 165.06 82.9149C164.435 82.9149 163.924 83.4264 163.924 84.0515V85.1882H160.514V84.0515C160.514 83.4264 160.002 82.9149 159.377 82.9149C158.752 82.9149 158.241 83.4264 158.241 84.0515V85.1882H153.694V84.0515C153.694 83.4264 153.183 82.9149 152.557 82.9149C151.932 82.9149 151.421 83.4264 151.421 84.0515V85.1882H148.011V84.0515C148.011 83.4264 147.499 82.9149 146.874 82.9149C146.249 82.9149 145.738 83.4264 145.738 84.0515V85.1882H142.328C141.703 85.1882 141.191 85.6997 141.191 86.3248V92.008H170.744V86.3248C170.744 85.6997 170.232 85.1882 169.607 85.1882ZM149.148 89.7347C148.522 89.7347 148.011 89.2232 148.011 88.5981C148.011 87.9729 148.522 87.4614 149.148 87.4614C149.773 87.4614 150.284 87.9729 150.284 88.5981C150.284 89.2232 149.773 89.7347 149.148 89.7347ZM155.967 89.7347C155.342 89.7347 154.831 89.2232 154.831 88.5981C154.831 87.9729 155.342 87.4614 155.967 87.4614C156.592 87.4614 157.104 87.9729 157.104 88.5981C157.104 89.2232 156.592 89.7347 155.967 89.7347ZM162.787 89.7347C162.162 89.7347 161.651 89.2232 161.651 88.5981C161.651 87.9729 162.162 87.4614 162.787 87.4614C163.412 87.4614 163.924 87.9729 163.924 88.5981C163.924 89.2232 163.412 89.7347 162.787 89.7347Z" fill="#11A2A8"/>
<path d="M71.5144 194.906H100.679V196.121C100.679 196.79 100.132 197.337 99.4638 197.337H72.7296C72.0612 197.337 71.5144 196.79 71.5144 196.121V194.906ZM99.4638 163.311H72.7296C72.0612 163.311 71.5144 163.858 71.5144 164.526V170.602H100.679V164.526C100.679 163.858 100.132 163.311 99.4638 163.311ZM84.8815 168.172H75.16V165.742H84.8815V168.172ZM90.9575 168.172C90.2891 168.172 89.7423 167.625 89.7423 166.957C89.7423 166.288 90.2891 165.742 90.9575 165.742C91.6258 165.742 92.1726 166.288 92.1726 166.957C92.1726 167.625 91.6258 168.172 90.9575 168.172ZM95.8182 168.172C95.1499 168.172 94.603 167.625 94.603 166.957C94.603 166.288 95.1499 165.742 95.8182 165.742C96.4866 165.742 97.0334 166.288 97.0334 166.957C97.0334 167.625 96.4866 168.172 95.8182 168.172ZM71.5144 171.817V193.691H100.679V171.817H71.5144ZM86.0967 188.83C82.4025 188.83 79.4131 185.841 79.4131 182.147C79.4131 178.452 82.4025 175.463 86.0967 175.463C89.7909 175.463 92.7802 178.452 92.7802 182.147C92.7802 185.841 89.7909 188.83 86.0967 188.83ZM95.8182 183.362C95.8182 184.03 95.2714 184.577 94.603 184.577H93.6066C93.8557 183.811 93.9954 182.997 93.9954 182.147C93.9954 181.296 93.8557 180.482 93.6066 179.716H94.603C95.2714 179.716 95.8182 180.263 95.8182 180.931V183.362Z" fill="#11A2A8"/>
<path d="M86.0967 186.4C88.4457 186.4 90.3499 184.496 90.3499 182.147C90.3499 179.798 88.4457 177.894 86.0967 177.894C83.7477 177.894 81.8435 179.798 81.8435 182.147C81.8435 184.496 83.7477 186.4 86.0967 186.4Z" fill="#11A2A8"/>
<path d="M166.598 160.095H146.684C146.08 160.097 145.502 160.337 145.076 160.764C144.649 161.191 144.409 161.769 144.407 162.372V172.086H168.875V162.372C168.873 161.769 168.633 161.191 168.206 160.764C167.779 160.337 167.201 160.097 166.598 160.095ZM149.628 168.853C149.629 168.953 149.61 169.052 149.573 169.145C149.535 169.237 149.479 169.322 149.408 169.392C149.338 169.463 149.254 169.519 149.161 169.557C149.069 169.594 148.969 169.613 148.869 169.612C148.668 169.612 148.475 169.532 148.333 169.389C148.191 169.247 148.111 169.054 148.111 168.853V164.846C148.114 164.646 148.195 164.455 148.336 164.313C148.478 164.171 148.669 164.09 148.869 164.087C149.071 164.088 149.263 164.168 149.406 164.31C149.548 164.452 149.628 164.645 149.628 164.846V168.853ZM145.925 173.604H144.407V196.645C144.409 197.248 144.649 197.827 145.076 198.253C145.502 198.68 146.08 198.92 146.684 198.922H146.927V200.318C146.926 200.418 146.945 200.517 146.982 200.61C147.02 200.702 147.076 200.786 147.147 200.857C147.217 200.928 147.301 200.984 147.394 201.021C147.486 201.059 147.586 201.078 147.686 201.077H150.16C150.361 201.077 150.554 200.997 150.696 200.854C150.838 200.712 150.918 200.519 150.919 200.318V198.922H162.363V200.318C162.363 200.519 162.444 200.712 162.586 200.854C162.728 200.997 162.921 201.077 163.122 201.077H165.596C165.696 201.078 165.795 201.059 165.888 201.021C165.98 200.984 166.064 200.928 166.135 200.857C166.206 200.786 166.262 200.702 166.299 200.61C166.337 200.517 166.356 200.418 166.355 200.318V198.922H166.598C167.201 198.92 167.779 198.68 168.206 198.253C168.633 197.827 168.873 197.248 168.875 196.645V173.604H145.925ZM148.111 176.852C148.111 176.651 148.191 176.458 148.333 176.316C148.475 176.174 148.668 176.094 148.869 176.093C148.969 176.092 149.069 176.111 149.161 176.149C149.254 176.187 149.338 176.243 149.408 176.313C149.479 176.384 149.535 176.468 149.573 176.561C149.61 176.653 149.629 176.752 149.628 176.852V180.844C149.629 180.944 149.61 181.043 149.573 181.136C149.535 181.228 149.479 181.312 149.408 181.383C149.338 181.454 149.254 181.51 149.161 181.547C149.069 181.585 148.969 181.604 148.869 181.603C148.668 181.603 148.475 181.523 148.333 181.38C148.191 181.238 148.111 181.045 148.111 180.844V176.852Z" fill="#11A2A8"/>
<path d="M199.889 236.095C196.063 237.872 191.058 238.877 188.941 237.466L154.164 208.008C152.652 206.947 151.613 205.338 151.269 203.522C150.925 201.707 151.303 199.829 152.321 198.288C153.34 196.746 154.92 195.664 156.725 195.271C158.529 194.877 160.416 195.204 161.983 196.182L180.832 204.105C179.172 195.484 163.875 141.577 163.875 141.577C163.565 140.659 163.445 139.688 163.524 138.722C163.603 137.756 163.878 136.816 164.333 135.961C164.787 135.105 165.412 134.352 166.168 133.747C166.925 133.142 167.797 132.697 168.731 132.442C170.502 131.997 172.376 132.24 173.976 133.121C175.575 134.003 176.782 135.457 177.355 137.192L189.215 171.907C189.301 172.152 189.444 172.374 189.631 172.554C189.819 172.735 190.046 172.868 190.294 172.945C190.577 173.056 190.884 173.084 191.182 173.028L192.992 172.662C193.212 172.62 193.42 172.533 193.606 172.407C193.791 172.282 193.949 172.12 194.071 171.932C202.421 170.146 213.078 168.128 221.884 165.861C228.134 164.25 229.952 159.424 234.716 163.436C237.471 165.761 245.282 182.404 246.601 187.96L258.694 227.317C247.664 229.759 241.323 230.888 199.889 236.095Z" fill="#F4B0B0"/>
<path d="M197.183 161.567C201.947 161.135 205.915 164.059 206.014 165.113L209.334 201.397C209.543 203.37 209 205.348 207.813 206.937C206.627 208.526 204.885 209.609 202.935 209.968C201.898 210.135 200.837 210.087 199.819 209.827C198.801 209.566 197.847 209.099 197.018 208.454C196.188 207.809 195.499 207 194.995 206.078C194.491 205.155 194.182 204.139 194.087 203.092L190.966 169.042C190.789 167.271 191.308 165.5 192.413 164.105C193.517 162.71 195.121 161.8 196.884 161.567H197.183Z" fill="#F4B0B0"/>
<path d="M212.256 160.271C217.02 159.748 221.037 162.564 221.154 163.643L225.179 199.861C225.426 201.831 224.92 203.821 223.763 205.433C222.605 207.046 220.882 208.161 218.937 208.556C217.903 208.742 216.842 208.714 215.82 208.472C214.797 208.23 213.836 207.781 212.994 207.152C212.153 206.522 211.449 205.727 210.928 204.814C210.407 203.901 210.079 202.891 209.965 201.846L205.815 164.706C206.424 163.481 207.335 162.431 208.462 161.655C209.589 160.879 210.894 160.403 212.256 160.271Z" fill="#F4B0B0"/>
<path d="M226.383 160.396C230.806 159.856 234.583 162.431 234.683 163.436L238.833 197.129C239.083 198.96 238.633 200.819 237.573 202.332C236.512 203.846 234.92 204.903 233.114 205.292C232.153 205.476 231.165 205.46 230.211 205.246C229.257 205.032 228.356 204.625 227.566 204.049C226.775 203.473 226.112 202.74 225.615 201.897C225.119 201.054 224.801 200.118 224.681 199.147L220.431 164.59C220.984 163.441 221.82 162.453 222.862 161.719C223.904 160.985 225.115 160.529 226.383 160.396Z" fill="#F4B0B0"/>
<path d="M196.752 249.516C197.681 253.212 205.5 273.293 207.973 288.308L262.546 237.341C260.62 230.954 259.657 228.338 256.155 219.07C246.51 193.499 176.068 226.603 176.068 226.603C176.068 226.603 195.498 244.525 196.752 249.516Z" fill="#F4B0B0"/>
<path d="M265.89 238.13L263.674 231.004C263.674 231.004 202.254 253.959 196.752 257.24C198.171 262.879 199.159 265.702 199.159 265.702C226.258 256.55 265.89 238.13 265.89 238.13Z" fill="white"/>
<path d="M269.044 234.974L196.76 263.435L210.289 327.35H301.481L269.044 234.974Z" fill="#0E8388"/>
</svg>
