<svg width="241" height="144" viewBox="0 0 241 144" fill="none" xmlns="http://www.w3.org/2000/svg">
<g clip-path="url(#clip0_47_1330)">
<path d="M184.515 142.372C181.43 139.766 179.556 135.65 180.047 131.643C180.539 127.635 183.583 123.952 187.532 123.101C191.48 122.25 195.982 124.605 197.181 128.46C197.841 121.028 198.602 113.284 202.555 106.955C206.136 101.224 212.336 97.1229 219.057 96.3893C225.777 95.6556 232.853 98.4265 237.044 103.728C241.235 109.029 242.261 116.736 239.326 122.822C237.163 127.305 233.179 130.642 229.005 133.356C215.517 142.054 199.34 145.591 183.45 143.317L184.515 142.372Z" fill="#F2F2F2"/>
<path d="M230.398 98.5802C224.853 103.094 219.766 108.143 215.211 113.653C208.082 122.246 202.313 131.881 198.105 142.222C197.797 142.976 199.022 143.304 199.327 142.558C206.212 125.753 217.203 110.94 231.294 99.476C231.927 98.961 231.026 98.0695 230.398 98.5802Z" fill="white"/>
<path d="M77.5818 141.664C81.8197 138.085 84.3938 132.431 83.7187 126.927C83.0437 121.424 78.8625 116.364 73.4389 115.195C68.0154 114.026 61.8329 117.262 60.1855 122.557C59.2789 112.348 58.2343 101.712 52.8036 93.0187C47.8863 85.1471 39.3695 79.5146 30.1392 78.5069C20.9088 77.4993 11.1905 81.3051 5.43388 88.5862C-0.322745 95.8673 -1.73223 106.453 2.29956 114.812C5.26963 120.97 10.7416 125.553 16.4748 129.281C34.7657 141.176 57.4556 146.137 79.0454 142.962" fill="#F2F2F2"/>
<path d="M14.5616 81.5162C22.1777 87.716 29.1647 94.65 35.4216 102.218C41.6794 109.778 47.1887 117.927 51.8722 126.55C54.4901 131.388 56.8417 136.364 58.9167 141.458C59.3398 142.494 57.6563 142.945 57.2379 141.92C53.5626 132.94 49.0155 124.342 43.6619 116.249C38.3343 108.185 32.2365 100.656 25.4543 93.7692C21.6182 89.8756 17.5709 86.1959 13.3305 82.7465C12.4614 82.0392 13.6996 80.8146 14.5616 81.5162Z" fill="white"/>
<path d="M172.994 143.685H71.8845V40.0047C71.8845 17.946 89.841 0 111.913 0H132.966C155.037 0 172.994 17.946 172.994 40.0047V143.685Z" fill="#F2F2F2"/>
<path d="M151.941 143.685H71.8844V40.0046C71.8623 31.5522 74.5404 23.3135 79.5287 16.4878C79.7126 16.2374 79.896 15.9901 80.0852 15.7456C82.498 12.5829 85.3694 9.79751 88.6045 7.48145C88.7872 7.34857 88.9707 7.21799 89.1569 7.0874C91.8639 5.21519 94.7921 3.68469 97.875 2.53074C98.0581 2.46139 98.2445 2.39191 98.4309 2.32526C101.219 1.33084 104.109 0.649667 107.048 0.294318C107.23 0.269443 107.417 0.249978 107.605 0.230513C110.469 -0.0755356 113.357 -0.0755356 116.221 0.230513C116.408 0.249978 116.595 0.269441 116.779 0.294584C119.717 0.649957 122.607 1.33105 125.394 2.32528C125.581 2.39192 125.767 2.4614 125.951 2.53088C128.996 3.67027 131.889 5.17794 134.568 7.02022C134.754 7.14797 134.94 7.27856 135.123 7.40914C136.937 8.70278 138.64 10.144 140.216 11.718C141.479 12.9806 142.657 14.3264 143.741 15.7464C143.929 15.9901 144.113 16.2374 144.296 16.4874C149.285 23.3131 151.963 31.5521 151.941 40.0046V143.685Z" fill="#0E8388"/>
<path d="M145.431 97.3125C147.879 97.3125 149.863 95.3294 149.863 92.883C149.863 90.4366 147.879 88.4534 145.431 88.4534C142.983 88.4534 140.999 90.4366 140.999 92.883C140.999 95.3294 142.983 97.3125 145.431 97.3125Z" fill="#077378"/>
<path d="M175.085 74.973L174.53 62.2541C174.109 59.8632 175.479 57.603 177.585 57.2335C179.692 56.8654 181.749 58.5237 182.172 60.9322L184.258 72.8167L175.085 74.973Z" fill="#077378"/>
<path d="M164.711 140.579H161.315L159.699 127.488L164.711 127.488L164.711 140.579Z" fill="#FFB8B8"/>
<path d="M158.889 139.609H165.438V143.731H154.765C154.765 143.19 154.872 142.654 155.079 142.154C155.286 141.654 155.59 141.199 155.973 140.817C156.356 140.434 156.81 140.13 157.311 139.923C157.811 139.716 158.347 139.609 158.889 139.609Z" fill="#2F2E41"/>
<path d="M181.609 140.579H178.212L176.597 127.488L181.609 127.488L181.609 140.579Z" fill="#FFB8B8"/>
<path d="M175.786 139.609H182.336V143.731H171.663C171.663 143.19 171.769 142.654 171.977 142.154C172.184 141.654 172.488 141.199 172.87 140.817C173.253 140.434 173.708 140.13 174.208 139.923C174.709 139.716 175.245 139.609 175.786 139.609Z" fill="#2F2E41"/>
<path d="M147.674 93.7604C147.43 93.4006 147.267 92.9917 147.198 92.5624C147.129 92.1332 147.155 91.694 147.274 91.2758C147.393 90.8576 147.603 90.4706 147.888 90.1421C148.173 89.8135 148.526 89.5514 148.924 89.3742L160.468 57.5735L166.149 60.6718L152.968 91.0618C153.221 91.7485 153.214 92.5044 152.947 93.1861C152.68 93.8679 152.173 94.4282 151.52 94.7608C150.868 95.0935 150.116 95.1754 149.407 94.991C148.698 94.8066 148.082 94.3687 147.674 93.7604Z" fill="#FFB8B8"/>
<path d="M179.874 99.7358C179.496 99.5195 179.171 99.2232 178.92 98.8677C178.67 98.5121 178.501 98.106 178.424 97.678C178.348 97.25 178.366 96.8104 178.478 96.3902C178.59 95.9701 178.793 95.5796 179.072 95.2462L175.496 61.6064L181.961 61.9016L183.447 94.9908C183.976 95.4968 184.301 96.1794 184.361 96.909C184.42 97.6386 184.21 98.3647 183.769 98.9495C183.329 99.5344 182.689 99.9375 181.971 100.082C181.253 100.227 180.507 100.104 179.874 99.7358Z" fill="#FFB8B8"/>
<path d="M169.56 51.6831C173.318 51.6831 176.364 48.6388 176.364 44.8834C176.364 41.1281 173.318 38.0837 169.56 38.0837C165.803 38.0837 162.757 41.1281 162.757 44.8834C162.757 48.6388 165.803 51.6831 169.56 51.6831Z" fill="#FFB8B8"/>
<path d="M179.83 92.0852H159.318L159.343 91.9257C159.38 91.6872 162.999 67.9951 160.33 60.2442C160.062 59.4825 160.085 58.6487 160.396 57.9033C160.706 57.1579 161.282 56.5536 162.011 56.2067C165.826 54.4113 173.149 52.2004 179.33 57.5658C180.239 58.3684 180.95 59.3714 181.404 60.4956C181.859 61.6197 182.046 62.8342 181.95 64.043L179.83 92.0852Z" fill="#0E8388"/>
<path d="M163.258 71.4964L154.023 69.624L158.352 59.3723C158.611 58.3794 159.254 57.5297 160.139 57.0095C161.024 56.4894 162.079 56.3414 163.073 56.5979C164.067 56.8544 164.919 57.4945 165.442 58.3777C165.964 59.261 166.115 60.3154 165.861 61.3096L163.258 71.4964Z" fill="#077378"/>
<path d="M179.148 90.5625C182.448 103.125 182.808 119.097 181.918 136.519L177.486 135.966L169.452 102.744L165.02 136.519L160.034 136.243C158.544 117.962 157.094 102.269 159.48 91.9467L179.148 90.5625Z" fill="#2F2E41"/>
<path d="M174.043 50.1384C172.774 51.4896 170.417 50.7643 170.251 48.9183C170.239 48.775 170.239 48.6307 170.254 48.4876C170.34 47.6699 170.812 46.9275 170.699 46.0642C170.674 45.8493 170.593 45.6445 170.466 45.4692C169.455 44.1156 167.081 46.0747 166.126 44.8493C165.541 44.0979 166.229 42.9149 165.78 42.0751C165.187 40.9667 163.431 41.5135 162.33 40.9065C161.105 40.2311 161.178 38.3525 161.984 37.2098C162.968 35.8163 164.692 35.0727 166.395 34.9655C168.098 34.8583 169.79 35.3184 171.379 35.9376C173.186 36.6412 174.977 37.6136 176.089 39.201C177.441 41.1315 177.571 43.7269 176.895 45.9843C176.483 47.3575 175.08 49.035 174.043 50.1384Z" fill="#2F2E41"/>
<path d="M232.685 143.863H28.1686C28.0813 143.863 27.9976 143.828 27.936 143.766C27.8743 143.704 27.8397 143.621 27.8397 143.533C27.8397 143.446 27.8743 143.362 27.936 143.301C27.9976 143.239 28.0813 143.204 28.1686 143.204H232.685C232.772 143.204 232.855 143.239 232.917 143.301C232.979 143.362 233.013 143.446 233.013 143.533C233.013 143.621 232.979 143.704 232.917 143.766C232.855 143.828 232.772 143.863 232.685 143.863Z" fill="#3F3D56"/>
<path d="M129.918 113.647H93.9069C93.4326 113.649 92.9767 113.464 92.6392 113.131C92.3016 112.798 92.11 112.345 92.1063 111.871V31.5373C92.11 31.0634 92.3016 30.6102 92.6392 30.2772C92.9767 29.9443 93.4326 29.7587 93.9069 29.7613H129.918C130.393 29.7587 130.849 29.9443 131.186 30.2772C131.524 30.6102 131.715 31.0634 131.719 31.5373V111.871C131.715 112.345 131.524 112.798 131.186 113.131C130.849 113.464 130.393 113.649 129.918 113.647Z" fill="white"/>
<path d="M131.719 55.7546H92.1063V56.3083H131.719V55.7546Z" fill="#CCCCCC"/>
<path d="M131.858 87.3459H92.2449V87.8996H131.858V87.3459Z" fill="#CCCCCC"/>
<path d="M105.126 29.7612H104.572V113.923H105.126V29.7612Z" fill="#CCCCCC"/>
<path d="M118.976 29.7612H118.422V113.923H118.976V29.7612Z" fill="#CCCCCC"/>
</g>
<defs>
<clipPath id="clip0_47_1330">
<rect width="241" height="144" fill="white"/>
</clipPath>
</defs>
</svg>
