<svg width="187" height="124" viewBox="0 0 187 124" fill="none" xmlns="http://www.w3.org/2000/svg">
<path d="M67.0769 71.3631C73.4854 60.1147 85.7098 51.4778 98.6503 52.3098C89.105 62.667 83.5389 76.0592 82.9369 90.117C82.7244 95.5393 83.0539 101.592 79.4457 105.653C77.2006 108.179 73.7689 109.402 70.3949 109.659C67.0206 109.916 63.6472 109.307 60.318 108.702L59.5104 108.949C59.203 96.0139 60.6684 82.6115 67.0769 71.3631Z" fill="#F0F0F0"/>
<path d="M98.6697 52.5807C89.1003 57.1772 80.9407 64.8539 75.9317 74.2162C74.8488 76.2403 73.9268 78.3877 73.5246 80.6581C73.1223 82.9295 73.4033 85.0917 74.1808 87.2491C74.8917 89.2214 75.8477 91.1567 76.0656 93.267C76.2954 95.4915 75.4751 97.5713 73.9986 99.222C72.192 101.242 69.7659 102.493 67.3507 103.635C64.6691 104.902 61.8636 106.177 59.9643 108.542C59.7342 108.829 59.3019 108.456 59.5316 108.17C62.8362 104.054 68.4927 103.28 72.4152 99.9645C74.2455 98.4174 75.6196 96.3105 75.5329 93.8419C75.457 91.6831 74.4729 89.6866 73.7359 87.6958C72.962 85.6055 72.576 83.5037 72.8536 81.2751C73.1375 78.9953 73.9773 76.8075 75.0036 74.7646C77.3182 70.1575 80.4857 65.9278 84.1144 62.2715C88.2847 58.0687 93.1449 54.6086 98.4846 52.0411C98.8151 51.8823 98.9981 52.423 98.6697 52.5807Z" fill="white"/>
<path d="M77.399 71.0873C75.9319 70.017 74.894 68.4612 74.4705 66.6978C74.047 64.9344 74.2655 63.0782 75.0869 61.4607C75.2543 61.1339 75.771 61.3781 75.6034 61.7052C74.8356 63.21 74.6323 64.9391 75.03 66.5804C75.4278 68.2217 76.4004 69.667 77.7724 70.6556C78.0703 70.8708 77.6951 71.3012 77.399 71.0873Z" fill="white"/>
<path d="M73.6884 86.2964C77.3644 85.7604 80.7029 83.8617 83.0382 80.9789C83.2693 80.693 83.7017 81.066 83.4708 81.3515C81.0351 84.347 77.5568 86.3158 73.7303 86.8651C73.3655 86.9172 73.3256 86.3482 73.6884 86.2964Z" fill="white"/>
<path d="M88.567 58.7704C89.0482 59.3025 89.6542 59.7071 90.3308 59.9478C91.0073 60.1884 91.7332 60.2577 92.4432 60.1492C92.8072 60.0926 92.8466 60.6617 92.4851 60.718C91.7001 60.8341 90.8985 60.7567 90.1504 60.4924C89.4023 60.2282 88.7305 59.7851 88.1936 59.202C88.1383 59.1513 88.1046 59.0815 88.0991 59.0068C88.0936 58.9321 88.1168 58.8581 88.164 58.7999C88.2137 58.743 88.284 58.708 88.3594 58.7024C88.4349 58.6969 88.5095 58.7213 88.567 58.7704Z" fill="white"/>
<path d="M124.398 87.7944C124.172 87.8363 123.946 87.8781 123.717 87.9243C120.679 88.5027 117.692 89.3264 114.788 90.3873C114.562 90.4658 114.334 90.5487 114.111 90.6335C107.14 93.264 100.718 97.1629 95.1737 102.132C92.9692 104.112 90.9187 106.256 89.0402 108.545C86.446 111.708 83.8855 115.343 80.4955 117.405C80.1443 117.624 79.7797 117.821 79.4041 117.995L59.8756 109.913C59.8405 109.872 59.8032 109.836 59.7679 109.795L58.9734 109.508C59.062 109.384 59.1566 109.256 59.2452 109.131C59.2963 109.058 59.3518 108.988 59.4029 108.915C59.4383 108.867 59.474 108.819 59.5033 108.774C59.515 108.758 59.527 108.742 59.5369 108.731C59.5661 108.686 59.5981 108.647 59.6255 108.606C60.1523 107.891 60.6851 107.179 61.2238 106.469C61.2256 106.465 61.2256 106.465 61.2318 106.462C65.3504 101.065 69.9568 95.9632 75.1928 91.7212C75.3504 91.5937 75.5096 91.4616 75.6761 91.3377C78.0469 89.4387 80.5692 87.7362 83.218 86.2473C84.671 85.4366 86.1642 84.6999 87.6919 84.0399C91.6424 82.3421 95.836 81.2749 100.119 80.8775C108.657 80.0864 117.354 82.0287 123.902 87.3806C124.069 87.5177 124.233 87.6529 124.398 87.7944Z" fill="#F0F0F0"/>
<path d="M124.251 88.0236C113.837 85.9449 102.69 87.1725 93.0415 91.6387C90.9555 92.6043 88.9236 93.765 87.2325 95.3362C85.5407 96.9081 84.4604 98.8033 83.7794 100.993C83.1569 102.995 82.7525 105.114 81.6531 106.93C80.4943 108.844 78.5844 110.012 76.4095 110.443C73.7483 110.97 71.056 110.512 68.4388 109.973C65.5328 109.374 62.524 108.706 59.58 109.454C59.2233 109.545 59.1032 108.987 59.4594 108.896C64.5814 107.595 69.5647 110.376 74.6972 110.085C77.0921 109.949 79.4605 109.092 80.8809 107.069C82.1229 105.3 82.5419 103.115 83.1546 101.082C83.798 98.9484 84.7581 97.0384 86.3244 95.4257C87.9267 93.776 89.9174 92.5336 91.9695 91.5191C96.5975 89.231 101.679 87.7567 106.782 87.0172C112.648 86.1668 118.617 86.3238 124.429 87.4815C124.789 87.5533 124.609 88.0949 124.251 88.0236Z" fill="white"/>
<path d="M96.101 90.0219C95.5755 88.286 95.6855 86.4203 96.4114 84.7579C97.1373 83.0955 98.4318 81.7447 100.064 80.9467C100.394 80.7863 100.66 81.2917 100.328 81.4522C98.8075 82.1925 97.6018 83.4509 96.929 85.0003C96.2562 86.5497 96.1607 88.2881 96.6596 89.9016C96.7676 90.2523 96.2084 90.3707 96.101 90.0219Z" fill="white"/>
<path d="M83.9612 99.9364C87.2197 101.717 91.0309 102.206 94.6351 101.307C94.9921 101.218 95.1123 101.776 94.7557 101.865C91.0034 102.793 87.0382 102.276 83.6514 100.416C83.3288 100.238 83.6403 99.7599 83.9612 99.9364Z" fill="white"/>
<path d="M112.45 86.8966C112.513 87.6105 112.753 88.2976 113.148 88.8962C113.543 89.4948 114.081 89.9862 114.713 90.3261C115.038 90.4995 114.726 90.9776 114.403 90.8054C113.706 90.4265 113.113 89.8832 112.675 89.2228C112.237 88.5624 111.968 87.805 111.892 87.0169C111.878 86.9432 111.893 86.8672 111.934 86.8042C111.975 86.7413 112.038 86.6962 112.111 86.678C112.185 86.6625 112.262 86.6767 112.325 86.7176C112.389 86.7585 112.434 86.8228 112.45 86.8966Z" fill="white"/>
<path d="M87.1977 101.129C84.4628 87.934 81.0442 83.5349 81.0442 83.5349L79.7381 82.5243L78.1676 81.307L78.1751 81.1505L77.8026 81.0242L77.7151 80.9564L77.5717 80.8465L77.5487 80.8712L77.5 80.9215L70.3929 78.5111L61.3764 75.4552L57.2012 70.0402C56.5212 69.1583 55.6458 68.4455 54.6435 67.9577C53.6412 67.4699 52.5393 67.2204 51.4242 67.2286L38.0899 67.327C36.2869 67.3404 34.5542 68.0261 33.2323 69.2496L24.4678 77.3613L10.8112 83.8692L10.7881 83.8462L10.6447 83.9484L8.53465 84.9551L8.62173 85.4074L7.31572 86.3477C7.31572 86.3477 3.89708 90.441 1.16216 102.718C0.466424 105.842 0.123959 112.544 0.000347375 120.801C-0.00586163 121.219 0.0712202 121.634 0.227109 122.022C0.382998 122.409 0.614585 122.762 0.908403 123.06C1.20222 123.358 1.55241 123.594 1.93861 123.755C2.3248 123.917 2.7393 124 3.15801 124H76.1009L85.2051 124C85.6236 124 86.0378 123.917 86.4237 123.755C86.8097 123.594 87.1597 123.358 87.4534 123.061C87.7472 122.764 87.9789 122.411 88.135 122.024C88.2911 121.636 88.3685 121.222 88.3628 120.805C88.2421 111.819 87.8998 104.516 87.1977 101.129Z" fill="#0E8388"/>
<path d="M96.5567 11.5067C93.7188 11.5067 90.9971 12.6316 88.9904 14.6338C86.9837 16.6361 85.8563 19.3518 85.8563 22.1834C85.8563 25.0151 86.9837 27.7307 88.9904 29.733C90.9971 31.7353 93.7188 32.8601 96.5567 32.8601H176.3C179.138 32.8601 181.859 31.7353 183.866 29.733C185.873 27.7307 187 25.0151 187 22.1834C187 19.3518 185.873 16.6361 183.866 14.6338C181.859 12.6316 179.138 11.5067 176.3 11.5067H96.5567Z" fill="#E5E5E5"/>
<path d="M96.5566 13.6675C94.2931 13.6675 92.1222 14.5647 90.5216 16.1617C88.921 17.7588 88.0219 19.9249 88.0219 22.1834C88.0219 24.442 88.921 26.6081 90.5216 28.2051C92.1222 29.8022 94.2931 30.6994 96.5566 30.6994H176.3C178.563 30.6994 180.734 29.8022 182.335 28.2051C183.935 26.6081 184.834 24.442 184.834 22.1834C184.834 19.9249 183.935 17.7588 182.335 16.1617C180.734 14.5647 178.563 13.6675 176.3 13.6675H96.5566Z" fill="white"/>
<path d="M46.8511 62.2303C56.4991 62.2303 64.3203 54.4263 64.3203 44.7997C64.3203 35.173 56.4991 27.369 46.8511 27.369C37.2031 27.369 29.3818 35.173 29.3818 44.7997C29.3818 54.4263 37.2031 62.2303 46.8511 62.2303Z" fill="#FFB8B8"/>
<path d="M42.3821 61.3767C42.3075 61.2128 42.233 61.0483 42.1588 60.8832C42.1874 60.8841 42.2157 60.8882 42.2443 60.8889L42.3821 61.3767Z" fill="#2F2E41"/>
<path d="M28.8961 28.1616C29.7796 27.4583 30.8123 26.8112 31.9419 26.8476C33.0715 26.8839 34.2171 27.9019 33.983 29.0052C36.0579 25.3395 39.3606 22.5202 43.3112 21.0421C47.2619 19.564 51.6081 19.5215 55.5869 20.9222C58.3946 21.9106 61.1479 23.8879 61.7928 26.788C61.9584 27.5324 61.9939 28.3487 62.4598 28.9533C63.0471 29.7155 64.171 29.8879 65.0963 29.6198C65.1056 29.6171 65.1148 29.6144 65.1241 29.6116C65.2804 29.5583 65.4491 29.5531 65.6085 29.5966C65.7678 29.6401 65.9104 29.7302 66.0178 29.8554C66.1253 29.9807 66.1926 30.1352 66.211 30.299C66.2295 30.4628 66.1983 30.6283 66.1214 30.7742L65.327 32.2525C66.3284 32.4752 67.3689 32.4531 68.3599 32.1881C68.5245 32.1451 68.6985 32.1539 68.8579 32.2133C69.0173 32.2728 69.1544 32.38 69.2503 32.5203C69.3463 32.6605 69.3964 32.827 69.3937 32.9968C69.3911 33.1666 69.3359 33.3314 69.2356 33.4687C66.6162 37.0571 62.2399 39.3743 57.774 39.3471C54.6 39.3278 51.3932 38.2363 48.3041 38.9646C47.1091 39.2463 45.9924 39.7915 45.036 40.56C44.0797 41.3285 43.3079 42.3009 42.7773 43.4059C42.2467 44.5109 41.9708 45.7203 41.9698 46.9456C41.9687 48.1708 42.2427 49.3808 42.7714 50.4866C41.8224 49.4509 39.9879 49.6961 39.0172 50.7116C38.0465 51.7271 37.7952 53.2427 37.893 54.6426C38.0426 56.7838 38.8833 58.8013 39.7697 60.765C32.3385 60.5316 25.3098 55.3302 22.9439 48.2952C20.5681 41.2308 23.058 32.8085 28.8961 28.1616Z" fill="#2F2E41"/>
<path opacity="0.2" d="M17.1942 97.1449L22.0939 123.745L25.0339 124L17.1942 97.1449Z" fill="black"/>
<path opacity="0.2" d="M71.1657 95.1389L66.266 123.725L63.326 124L71.1657 95.1389Z" fill="black"/>
<path d="M114.171 27.2754H98.3049C98.2545 27.2758 98.2046 27.2662 98.1579 27.2472C98.1112 27.2282 98.0688 27.2001 98.033 27.1647C97.9973 27.1292 97.9689 27.0871 97.9495 27.0407C97.9301 26.9942 97.9202 26.9444 97.9202 26.8941C97.9202 26.8438 97.9301 26.794 97.9495 26.7476C97.9689 26.7012 97.9973 26.659 98.033 26.6236C98.0688 26.5881 98.1112 26.5601 98.1579 26.5411C98.2046 26.5221 98.2545 26.5125 98.3049 26.5128H114.171C114.272 26.5135 114.368 26.554 114.439 26.6254C114.51 26.6969 114.55 26.7935 114.55 26.8941C114.55 26.9948 114.51 27.0914 114.439 27.1628C114.368 27.2343 114.272 27.2748 114.171 27.2754Z" fill="#0E8388"/>
<path d="M134.298 27.4026H118.432C118.381 27.403 118.331 27.3934 118.285 27.3744C118.238 27.3554 118.196 27.3273 118.16 27.2919C118.124 27.2564 118.096 27.2143 118.076 27.1679C118.057 27.1214 118.047 27.0716 118.047 27.0213C118.047 26.971 118.057 26.9212 118.076 26.8748C118.096 26.8284 118.124 26.7862 118.16 26.7508C118.196 26.7153 118.238 26.6873 118.285 26.6683C118.331 26.6493 118.381 26.6397 118.432 26.64H134.298C134.348 26.6397 134.398 26.6493 134.445 26.6683C134.491 26.6873 134.534 26.7153 134.57 26.7508C134.605 26.7862 134.634 26.8284 134.653 26.8748C134.672 26.9212 134.682 26.971 134.682 27.0213C134.682 27.0716 134.672 27.1214 134.653 27.1679C134.634 27.2143 134.605 27.2564 134.57 27.2919C134.534 27.3273 134.491 27.3554 134.445 27.3744C134.398 27.3934 134.348 27.403 134.298 27.4026Z" fill="#0E8388"/>
<path d="M154.425 27.5297H138.559C138.458 27.529 138.361 27.4886 138.29 27.4171C138.219 27.3457 138.179 27.2491 138.179 27.1484C138.179 27.0477 138.219 26.9511 138.29 26.8797C138.361 26.8083 138.458 26.7678 138.559 26.7671H154.425C154.475 26.7668 154.525 26.7764 154.572 26.7954C154.618 26.8144 154.661 26.8424 154.696 26.8779C154.732 26.9133 154.761 26.9555 154.78 27.0019C154.799 27.0483 154.809 27.0981 154.809 27.1484C154.809 27.1987 154.799 27.2485 154.78 27.2949C154.761 27.3414 154.732 27.3835 154.696 27.419C154.661 27.4544 154.618 27.4824 154.572 27.5014C154.525 27.5205 154.475 27.5301 154.425 27.5297Z" fill="#0E8388"/>
<path d="M174.551 27.6568H158.685C158.585 27.6561 158.488 27.6156 158.417 27.5442C158.346 27.4728 158.306 27.3762 158.306 27.2755C158.306 27.1748 158.346 27.0782 158.417 27.0068C158.488 26.9353 158.585 26.8949 158.685 26.8942H174.551C174.652 26.8949 174.749 26.9353 174.82 27.0068C174.891 27.0782 174.931 27.1748 174.931 27.2755C174.931 27.3762 174.891 27.4728 174.82 27.5442C174.749 27.6156 174.652 27.6561 174.551 27.6568Z" fill="#0E8388"/>
<path d="M106.203 23.7663C107.832 23.7663 109.152 22.449 109.152 20.824C109.152 19.199 107.832 17.8817 106.203 17.8817C104.574 17.8817 103.254 19.199 103.254 20.824C103.254 22.449 104.574 23.7663 106.203 23.7663Z" fill="#0E8388"/>
<path d="M126.451 23.7663C128.08 23.7663 129.4 22.449 129.4 20.824C129.4 19.199 128.08 17.8817 126.451 17.8817C124.823 17.8817 123.503 19.199 123.503 20.824C123.503 22.449 124.823 23.7663 126.451 23.7663Z" fill="#0E8388"/>
<path d="M146.7 23.7663C148.328 23.7663 149.649 22.449 149.649 20.824C149.649 19.199 148.328 17.8817 146.7 17.8817C145.071 17.8817 143.751 19.199 143.751 20.824C143.751 22.449 145.071 23.7663 146.7 23.7663Z" fill="#0E8388"/>
<path d="M166.948 23.7663C168.577 23.7663 169.897 22.449 169.897 20.824C169.897 19.199 168.577 17.8817 166.948 17.8817C165.32 17.8817 163.999 19.199 163.999 20.824C163.999 22.449 165.32 23.7663 166.948 23.7663Z" fill="#0E8388"/>
</svg>
