<svg width="44" height="39" viewBox="0 0 44 39" fill="none" xmlns="http://www.w3.org/2000/svg">
<path fill-rule="evenodd" clip-rule="evenodd" d="M14.8303 15.7354C17.9119 15.7354 20.7742 16.6733 23.1484 18.2787L18.2182 21.8608C16.7639 22.9174 16.4382 24.9528 17.4932 26.4088C18.3136 27.541 19.7282 27.9903 21.0012 27.6378V30.6047H1.04995C0.747103 30.6047 0.486369 30.491 0.280549 30.269C0.0745566 30.0471 -0.0193729 29.7786 0.00331453 29.4767C0.579697 21.7916 6.99784 15.7354 14.8303 15.7354ZM21.2354 26.0218L22.3761 25.1931V35.5492C22.3761 37.0296 23.5874 38.2409 25.0678 38.2409H28.515V29.2756C28.515 28.5793 29.0848 28.0094 29.7812 28.0094H32.4671C33.1635 28.0094 33.7333 28.5792 33.7333 29.2756V38.2409H37.1805C38.661 38.2409 39.8722 37.0296 39.8722 35.5492V25.193L41.0129 26.0218C41.8547 26.6318 43.0317 26.4439 43.6417 25.602C44.2518 24.7602 44.0638 23.5832 43.222 22.9732L32.2614 15.0098C31.6182 14.522 30.7072 14.4879 30.0196 14.9861L19.0263 22.9732C18.1845 23.5832 17.9965 24.7602 18.6066 25.602C19.2166 26.4438 20.3936 26.6317 21.2354 26.0218ZM14.8303 0C18.9823 0 22.3482 3.36591 22.3482 7.5178C22.3482 11.6697 18.9822 15.0356 14.8303 15.0356C10.6785 15.0356 7.31255 11.6697 7.31255 7.5178C7.31255 3.36591 10.6785 0 14.8303 0Z" fill="#0E8388"/>
</svg>
