<svg width="282" height="330" viewBox="0 0 282 330" fill="none" xmlns="http://www.w3.org/2000/svg">
<path d="M236.433 187.11L198.384 202.811C197.578 203.124 196.67 203.138 195.852 202.853C195.034 202.567 194.371 202.003 194.003 201.281L182.966 179.213L177.523 168.332L176.984 167.245L167.227 147.733C166.883 147.001 166.867 146.176 167.181 145.433C167.496 144.69 168.117 144.088 168.912 143.754L206.961 128.068C207.357 127.903 207.786 127.812 208.222 127.8C208.658 127.788 209.091 127.855 209.498 127.998C209.905 128.14 210.276 128.355 210.59 128.63C210.904 128.905 211.154 129.234 211.325 129.598L221.655 150.258L227.098 161.124L230.282 167.49L238.101 183.131C238.446 183.861 238.465 184.684 238.154 185.427C237.842 186.169 237.225 186.773 236.433 187.11Z" fill="#FFBF80"/>
<path d="M229.575 177.625L223.449 180.141C222.72 180.44 222.396 181.22 222.725 181.882L225.495 187.446C225.825 188.109 226.684 188.403 227.413 188.103L233.539 185.588C234.269 185.288 234.592 184.509 234.263 183.846L231.493 178.282C231.163 177.62 230.304 177.326 229.575 177.625Z" fill="white"/>
<g style="mix-blend-mode:soft-light" opacity="0.5">
<path d="M236.433 187.11L198.384 202.811C197.578 203.124 196.67 203.139 195.852 202.853C195.034 202.567 194.371 202.003 194.003 201.281L182.966 179.213L177.523 168.332L176.983 167.245C177.455 167.49 177.927 167.735 178.416 167.965C184.24 170.844 190.618 172.683 197.204 173.382C208.63 174.686 220.214 172.621 230.249 167.49L238.067 183.131C238.415 183.857 238.439 184.678 238.134 185.42C237.829 186.162 237.219 186.767 236.433 187.11Z" fill="#222221"/>
</g>
<g style="mix-blend-mode:soft-light" opacity="0.5">
<path d="M227.064 161.124L197.204 173.382L182.966 179.244L177.523 168.363L178.416 167.995L221.621 150.258L227.064 161.124Z" fill="#222221"/>
</g>
<path d="M279.504 78.8658L274.718 90.0682L269.477 102.449C269.335 102.792 269.12 103.106 268.844 103.373C268.568 103.641 268.236 103.856 267.868 104.007C267.5 104.157 267.103 104.241 266.7 104.252C266.296 104.263 265.895 104.201 265.517 104.071L234.832 93.3585L222.565 89.0888L189.706 77.6415C189.33 77.5109 188.985 77.3143 188.693 77.0628C188.4 76.8114 188.165 76.5101 188.001 76.1761C187.837 75.8422 187.746 75.4821 187.735 75.1165C187.724 74.7508 187.793 74.3868 187.937 74.0451L190.599 67.7247L197.912 50.4467C198.054 50.1037 198.27 49.7895 198.546 49.5222C198.822 49.2549 199.153 49.0398 199.521 48.8891C199.889 48.7383 200.286 48.6551 200.69 48.644C201.093 48.6329 201.495 48.6942 201.872 48.8245L234.276 60.0881L246.56 64.3731L277.802 75.2388C278.552 75.5208 279.15 76.0585 279.468 76.7367C279.786 77.4148 279.799 78.1793 279.504 78.8658Z" fill="#FFBF80"/>
<g style="mix-blend-mode:soft-light" opacity="0.5">
<path d="M274.718 90.0682L269.477 102.449C269.335 102.792 269.12 103.106 268.844 103.373C268.568 103.641 268.236 103.856 267.868 104.007C267.5 104.157 267.103 104.241 266.7 104.252C266.296 104.263 265.895 104.201 265.517 104.071L234.832 93.3585L222.565 89.0888L189.706 77.6415C189.33 77.5109 188.985 77.3143 188.693 77.0628C188.4 76.8114 188.165 76.5101 188.001 76.1761C187.837 75.8422 187.746 75.4821 187.735 75.1165C187.724 74.7508 187.793 74.3868 187.937 74.0451L190.599 67.7247C201.405 73.9436 213.005 78.944 225.143 82.6153C229.305 83.8855 233.568 85.0027 237.798 85.9515C249.881 88.6511 262.275 90.0331 274.718 90.0682Z" fill="#222221"/>
</g>
<g style="mix-blend-mode:soft-light" opacity="0.5">
<path d="M246.493 64.3732L237.848 85.9669L234.883 93.3739L222.615 89.0889L225.194 82.6306L234.209 60.0881L246.493 64.3732Z" fill="#222221"/>
</g>
<path d="M265.894 75.2302L263.537 80.949C263.257 81.6297 263.637 82.3882 264.387 82.643L270.683 84.7834C271.433 85.0382 272.268 84.6929 272.549 84.0121L274.905 78.2933C275.186 77.6126 274.806 76.8542 274.056 76.5994L267.759 74.4589C267.01 74.2041 266.175 74.5494 265.894 75.2302Z" fill="white"/>
<path d="M269.663 148.192L254.396 148.269H244.74H229.794C229.518 148.271 229.244 148.223 228.989 148.129C228.734 148.034 228.501 147.895 228.305 147.718C228.11 147.542 227.954 147.332 227.848 147.101C227.742 146.869 227.687 146.621 227.687 146.371L227.586 131.067V121.181C227.591 120.673 227.813 120.187 228.207 119.827C228.601 119.467 229.134 119.261 229.693 119.253H245.212H254.868H269.562C269.839 119.249 270.114 119.295 270.372 119.388C270.629 119.482 270.863 119.621 271.061 119.797C271.259 119.974 271.415 120.185 271.523 120.417C271.63 120.649 271.685 120.898 271.685 121.15L271.786 140.081V146.203C271.797 146.461 271.751 146.72 271.649 146.962C271.547 147.204 271.392 147.425 271.194 147.611C270.995 147.797 270.757 147.944 270.494 148.044C270.231 148.144 269.948 148.194 269.663 148.192Z" fill="#FFBF80"/>
<g style="mix-blend-mode:soft-light" opacity="0.5">
<path d="M269.663 148.192L254.396 148.269H244.74H229.794C229.518 148.271 229.244 148.223 228.989 148.129C228.734 148.034 228.501 147.895 228.305 147.718C228.11 147.542 227.954 147.332 227.848 147.101C227.742 146.869 227.687 146.621 227.687 146.371L227.586 131.067C230.157 132.755 232.999 134.071 236.012 134.97C238.938 135.939 241.919 136.767 244.943 137.449C248.117 138.181 251.335 138.748 254.581 139.148C260.272 139.887 266.027 140.138 271.769 139.897V146.019C271.81 146.291 271.786 146.568 271.699 146.831C271.612 147.094 271.463 147.337 271.263 147.543C271.063 147.749 270.817 147.914 270.541 148.026C270.265 148.138 269.965 148.195 269.663 148.192Z" fill="#222221"/>
</g>
<g style="mix-blend-mode:soft-light" opacity="0.5">
<path d="M254.463 148.269L244.808 148.314L244.959 137.602L245.212 119.329L254.868 119.283L254.598 139.3L254.463 148.269Z" fill="#222221"/>
</g>
<path d="M268.379 120.848L261.664 121.149C260.864 121.184 260.248 121.802 260.287 122.528L260.618 128.627C260.658 129.353 261.338 129.912 262.137 129.877L268.852 129.576C269.652 129.54 270.268 128.923 270.228 128.197L269.898 122.098C269.858 121.372 269.178 120.813 268.379 120.848Z" fill="white"/>
<path d="M96.0999 59.0933L80.3444 75.9275L71.8011 85.0179L53.973 103.918C53.397 104.515 52.5883 104.885 51.7175 104.951C50.8467 105.017 49.9818 104.772 49.3053 104.27L17.5248 79.6463C16.8751 79.1169 16.4769 78.3792 16.414 77.5885C16.3512 76.7978 16.6285 76.0158 17.1878 75.4071L19.53 72.8667L34.4261 56.9813L42.9526 47.8909L59.1799 30.6129C59.7576 30.0228 60.564 29.6582 61.4308 29.5955C62.2975 29.5327 63.1573 29.7766 63.8307 30.2762L92.0894 52.13L95.6449 54.8847C96.3024 55.3983 96.7166 56.1223 96.8013 56.9062C96.8861 57.69 96.6348 58.4734 96.0999 59.0933Z" fill="#FFBF80"/>
<g style="mix-blend-mode:soft-light" opacity="0.5">
<path d="M96.0999 59.0932L80.3444 75.9274L71.8011 85.0179L53.973 103.918C53.397 104.515 52.5883 104.885 51.7175 104.951C50.8467 105.016 49.9818 104.772 49.3053 104.27L17.5248 79.6462C16.8751 79.1168 16.4769 78.3791 16.414 77.5884C16.3512 76.7977 16.6285 76.0158 17.1878 75.4071L19.53 72.8666C28.8316 79.1718 42.6998 80.1359 54.0573 76.6161C55.5863 76.1509 57.088 75.6145 58.5564 75.0092C62.8436 73.2659 66.9254 71.1329 70.7395 68.6428C78.0498 63.6987 85.0012 58.3312 91.5502 52.5738L92.0894 52.13L95.6449 54.8847C96.3024 55.3983 96.7166 56.1223 96.8013 56.9061C96.8861 57.69 96.6348 58.4733 96.0999 59.0932Z" fill="#222221"/>
</g>
<g style="mix-blend-mode:soft-light" opacity="0.5">
<path d="M80.3444 75.851L71.8011 84.9414L58.5564 75.0399L34.4261 57.012L42.9526 47.9215L70.7395 68.6735L80.3444 75.851Z" fill="#222221"/>
</g>
<path d="M60.7725 32.5176L56.4688 37.2089C55.9565 37.7673 56.0396 38.5972 56.6545 39.0625L61.8201 42.9711C62.435 43.4364 63.3487 43.3609 63.8611 42.8025L68.1648 38.1111C68.6771 37.5527 68.5939 36.7228 67.9791 36.2575L62.8135 32.3489C62.1986 31.8836 61.2849 31.9591 60.7725 32.5176Z" fill="white"/>
<path d="M205.091 258.9C204.805 260.029 204.038 261.01 202.958 261.627C201.878 262.244 200.572 262.446 199.328 262.19L147.663 251.615L126.869 247.33L73.5198 236.418C72.9002 236.296 72.3136 236.062 71.7942 235.732C71.2749 235.401 70.833 234.98 70.4943 234.493C70.1556 234.006 69.9269 233.463 69.8215 232.895C69.716 232.327 69.736 231.745 69.8801 231.185L76.8394 203.148L79.3165 193.109C79.4559 192.548 79.7155 192.018 80.0805 191.548C80.4456 191.078 80.9089 190.679 81.4441 190.372C81.9792 190.065 82.5757 189.857 83.1995 189.759C83.8232 189.661 84.4621 189.676 85.0795 189.803L139.002 200.837L159.796 205.092L210.955 215.544C211.572 215.671 212.156 215.906 212.673 216.238C213.19 216.57 213.63 216.99 213.968 217.476C214.306 217.962 214.535 218.504 214.643 219.071C214.75 219.637 214.734 220.217 214.594 220.778L211.039 235.133L205.091 258.9Z" fill="#FFBF80"/>
<g style="mix-blend-mode:soft-light" opacity="0.5">
<path d="M205.091 258.9C204.805 260.029 204.038 261.01 202.958 261.627C201.878 262.244 200.572 262.446 199.328 262.19L147.663 251.615L126.869 247.33L73.5198 236.418C72.9002 236.296 72.3136 236.062 71.7942 235.732C71.2749 235.401 70.833 234.98 70.4943 234.493C70.1556 234.006 69.9269 233.463 69.8215 232.895C69.716 232.327 69.736 231.745 69.8801 231.185L76.8394 203.148C80.551 204.041 83.9796 205.713 86.8488 208.03C98.6443 216.309 109.631 225.476 121.999 232.99C124.443 234.521 126.937 235.898 129.498 237.214C135.757 240.503 142.442 243.073 149.399 244.866C153.927 246.036 158.584 246.744 163.284 246.978C179.225 247.682 194.744 242.387 209.034 235.929C209.674 235.623 210.331 235.332 210.971 235.056L205.091 258.9Z" fill="#222221"/>
</g>
<g style="mix-blend-mode:soft-light" opacity="0.5">
<path d="M159.728 205.122L147.663 251.615L126.869 247.361L138.934 200.868L159.728 205.122Z" fill="#222221"/>
</g>
<path d="M195.597 217.966L193.229 227.098C192.946 228.192 193.692 229.288 194.897 229.545L204.952 231.695C206.157 231.953 207.363 231.275 207.647 230.181L210.014 221.049C210.298 219.955 209.551 218.859 208.347 218.601L198.292 216.451C197.087 216.194 195.881 216.872 195.597 217.966Z" fill="white"/>
<path d="M153.746 181.86L120.432 182.625L107.289 182.932L72.5762 183.727C72.1734 183.738 71.7724 183.676 71.396 183.545C71.0196 183.414 70.6753 183.217 70.3826 182.966C70.09 182.714 69.8548 182.413 69.6905 182.079C69.5262 181.745 69.436 181.384 69.4251 181.019L69.1892 172.158L68.7174 155.752C68.6992 155.014 69.0023 154.3 69.5607 153.764C70.1192 153.228 70.888 152.914 71.7 152.89L106.21 152.094L119.354 151.788L152.887 151.008C153.704 150.995 154.493 151.276 155.083 151.789C155.673 152.302 156.016 153.006 156.038 153.747L156.341 164.827L156.746 178.998C156.764 179.739 156.459 180.455 155.896 180.992C155.334 181.528 154.561 181.84 153.746 181.86Z" fill="#FFBF80"/>
<g style="mix-blend-mode:soft-light" opacity="0.5">
<path d="M153.746 181.86L120.432 182.625L107.289 182.932L72.5762 183.727C72.1734 183.738 71.7724 183.676 71.396 183.545C71.0196 183.414 70.6753 183.218 70.3826 182.966C70.09 182.714 69.8548 182.413 69.6905 182.079C69.5262 181.745 69.436 181.384 69.4251 181.019L69.1892 172.158C70.3688 172.479 71.5483 172.831 72.7279 173.137C83.782 176.045 95.5269 174.882 106.969 173.382L109.901 172.984L120.011 171.622L145.961 168.133C149.635 167.643 153.595 166.985 156.308 164.827L156.712 178.999C156.73 179.734 156.43 180.446 155.875 180.981C155.32 181.517 154.555 181.832 153.746 181.86Z" fill="#222221"/>
</g>
<g style="mix-blend-mode:soft-light" opacity="0.5">
<path d="M120.432 182.626L107.289 182.932L106.969 173.382L106.21 152.095L119.354 151.789L120.045 171.622L120.432 182.626Z" fill="#222221"/>
</g>
<path d="M143.122 154.568L143.031 161.21C143.02 162.004 143.721 162.656 144.595 162.666L151.908 162.748C152.783 162.758 153.501 162.122 153.512 161.328L153.602 154.686C153.613 153.892 152.913 153.24 152.038 153.23L144.725 153.148C143.851 153.138 143.133 153.774 143.122 154.568Z" fill="white"/>
<path d="M109.058 110.805L101.239 127.517L97.0941 136.393C96.8946 136.804 96.5236 137.127 96.0625 137.291C95.6013 137.454 95.0876 137.445 94.6339 137.265L86.2085 134.005L77.3281 130.577L68.7343 127.256C68.5081 127.172 68.3024 127.049 68.1291 126.892C67.9558 126.736 67.8182 126.55 67.7242 126.345C67.6302 126.141 67.5818 125.921 67.5816 125.699C67.5814 125.477 67.6296 125.258 67.7232 125.053L72.9975 113.804L79.7378 99.4799C79.9376 99.0684 80.3076 98.7447 80.7678 98.5787C81.2281 98.4126 81.7417 98.4175 82.198 98.5923L90.4043 101.76L99.3015 105.188L108.114 108.586C108.56 108.77 108.909 109.105 109.085 109.52C109.262 109.935 109.252 110.396 109.058 110.805Z" fill="#FFBF80"/>
<g style="mix-blend-mode:soft-light" opacity="0.5">
<path d="M101.239 127.517L97.0941 136.393C96.8946 136.804 96.5236 137.127 96.0625 137.291C95.6013 137.454 95.0876 137.445 94.6339 137.265L86.2085 134.005L77.3281 130.577L68.7343 127.256C68.5081 127.173 68.3024 127.049 68.1291 126.893C67.9558 126.736 67.8182 126.55 67.7242 126.346C67.6302 126.141 67.5818 125.921 67.5816 125.699C67.5814 125.477 67.6296 125.258 67.7232 125.053L72.9975 113.804C75.879 117.202 78.4234 121.946 80.4118 123.767L80.7826 124.089C83.1733 125.888 85.9597 127.203 88.9552 127.945C92.7655 128.936 96.8156 128.867 100.582 127.746L101.239 127.517Z" fill="#222221"/>
</g>
<g style="mix-blend-mode:soft-light" opacity="0.5">
<path d="M99.251 105.188L88.9383 127.96L86.1917 134.021L77.3113 130.577L80.395 123.782V123.767L90.3538 101.76L99.251 105.188Z" fill="#222221"/>
</g>
<path d="M101.841 108.817L100.264 112.447C100.076 112.879 100.309 113.368 100.786 113.539L104.783 114.971C105.259 115.142 105.797 114.929 105.985 114.497L107.562 110.867C107.75 110.434 107.516 109.945 107.04 109.775L103.043 108.343C102.567 108.172 102.028 108.384 101.841 108.817Z" fill="white"/>
<path d="M169.283 120.492L166.165 127.639L159.071 143.876C158.971 144.111 158.82 144.325 158.629 144.506C158.437 144.687 158.208 144.833 157.954 144.934C157.701 145.034 157.428 145.089 157.151 145.094C156.874 145.099 156.599 145.055 156.341 144.963L142.541 140.005L133.576 136.76L119.27 131.633C118.754 131.44 118.341 131.07 118.121 130.604C117.9 130.138 117.889 129.612 118.09 129.139L121.797 120.63L128.285 105.77C128.387 105.535 128.539 105.321 128.733 105.14C128.926 104.959 129.157 104.815 129.413 104.715C129.668 104.616 129.942 104.563 130.22 104.56C130.498 104.557 130.774 104.604 131.031 104.699L145.152 109.764L154.117 112.993L168.086 118.013C168.344 118.104 168.58 118.241 168.779 118.415C168.979 118.589 169.139 118.797 169.25 119.027C169.361 119.258 169.421 119.505 169.427 119.757C169.433 120.008 169.384 120.258 169.283 120.492Z" fill="#FFBF80"/>
<g style="mix-blend-mode:soft-light" opacity="0.5">
<path d="M166.165 127.639L159.071 143.876C158.971 144.11 158.82 144.324 158.629 144.506C158.437 144.687 158.208 144.832 157.954 144.933C157.701 145.034 157.428 145.089 157.151 145.094C156.874 145.099 156.599 145.054 156.341 144.963L142.541 140.004L133.576 136.76L119.27 131.633C118.754 131.439 118.341 131.07 118.121 130.604C117.9 130.138 117.889 129.612 118.09 129.139L121.797 120.63C126.921 123.161 132.396 125.056 138.075 126.262C145.549 127.844 153.264 128.258 160.891 127.486C162.641 127.19 164.44 127.242 166.165 127.639Z" fill="#222221"/>
</g>
<g style="mix-blend-mode:soft-light" opacity="0.5">
<path d="M154.117 112.993L147.832 127.654L142.541 140.005L133.576 136.76L138.075 126.262L145.152 109.764L154.117 112.993Z" fill="#222221"/>
</g>
<path d="M161.618 118.305L160.041 121.936C159.853 122.368 160.087 122.857 160.563 123.028L164.56 124.46C165.036 124.63 165.574 124.418 165.762 123.986L167.339 120.355C167.527 119.923 167.293 119.434 166.817 119.264L162.82 117.831C162.344 117.661 161.806 117.873 161.618 118.305Z" fill="white"/>
<path d="M212.37 116.253L203.254 119.421L194.222 122.482L183.774 126.109C183.544 126.187 183.299 126.224 183.054 126.216C182.808 126.209 182.566 126.157 182.343 126.065C182.119 125.972 181.917 125.841 181.749 125.678C181.582 125.515 181.451 125.323 181.365 125.114L176.158 112.718L171.322 101.225C171.146 100.802 171.16 100.334 171.362 99.9214C171.564 99.5087 171.937 99.1851 172.4 99.0209L183.1 95.3021L192.132 92.2413L200.979 89.1805C201.446 89.0255 201.962 89.0428 202.416 89.2288C202.869 89.4147 203.224 89.7544 203.406 90.1753L210.87 107.989L213.432 114.11C213.597 114.523 213.579 114.977 213.381 115.378C213.182 115.778 212.82 116.092 212.37 116.253Z" fill="#FFBF80"/>
<g style="mix-blend-mode:soft-light" opacity="0.5">
<path d="M212.37 116.253L203.254 119.421L194.222 122.482L183.774 126.109C183.544 126.187 183.299 126.224 183.054 126.216C182.808 126.209 182.566 126.157 182.342 126.065C182.119 125.972 181.917 125.841 181.749 125.678C181.582 125.515 181.451 125.323 181.365 125.114L176.158 112.718C180.862 114.481 185.973 115.164 191.037 114.707C194.01 114.449 196.923 113.789 199.681 112.748L200.423 112.458C203.962 111.05 207.247 109.106 210.87 107.866L213.432 113.988C213.535 114.199 213.589 114.427 213.591 114.658C213.593 114.889 213.542 115.118 213.443 115.33C213.343 115.542 213.197 115.734 213.012 115.893C212.828 116.052 212.609 116.174 212.37 116.253Z" fill="#222221"/>
</g>
<g style="mix-blend-mode:soft-light" opacity="0.5">
<path d="M203.304 119.421L194.272 122.543L191.088 114.769L183.151 95.3633L192.183 92.2414L200.473 112.519L203.304 119.421Z" fill="#222221"/>
</g>
<path d="M201.074 90.5542L197.092 92.0218C196.618 92.1966 196.389 92.6875 196.582 93.1183L198.198 96.7343C198.39 97.165 198.931 97.3725 199.405 97.1977L203.387 95.7301C203.861 95.5553 204.089 95.0644 203.897 94.6336L202.281 91.0176C202.088 90.5869 201.548 90.3794 201.074 90.5542Z" fill="white"/>
<path d="M154.488 76.861L151.387 88.3389L147.747 101.714C147.628 102.151 147.324 102.527 146.901 102.762C146.479 102.996 145.972 103.071 145.489 102.969L135.497 100.72L126.111 98.6231L115.782 96.3122C115.301 96.2002 114.887 95.9205 114.632 95.5337C114.376 95.147 114.299 94.6844 114.417 94.2462L116.523 86.5943L121.174 69.4693C121.294 69.0329 121.598 68.6568 122.02 68.422C122.442 68.1872 122.949 68.1127 123.432 68.2144L133.424 70.464L142.81 72.5607L153.14 74.8716C153.604 74.9803 154.004 75.2484 154.256 75.6194C154.507 75.9904 154.59 76.4355 154.488 76.861Z" fill="#FFBF80"/>
<g style="mix-blend-mode:soft-light" opacity="0.5">
<path d="M151.387 88.3388L147.747 101.714C147.628 102.151 147.324 102.527 146.901 102.762C146.479 102.996 145.972 103.071 145.489 102.969L135.497 100.72L126.111 98.623L115.782 96.3121C115.301 96.2001 114.887 95.9204 114.632 95.5336C114.376 95.1469 114.299 94.6843 114.417 94.2461L116.523 86.5942C119.357 88.9217 122.729 90.6426 126.392 91.6305C130.054 92.6183 133.914 92.848 137.688 92.3025C139.423 92.0435 141.12 91.6019 142.743 90.9863C145.574 89.8692 148.556 88.3541 151.387 88.3388Z" fill="#222221"/>
</g>
<g style="mix-blend-mode:soft-light" opacity="0.5">
<path d="M142.81 72.4994L135.497 100.72L126.111 98.623L133.424 70.4028L142.81 72.4994Z" fill="#222221"/>
</g>
<path d="M146.828 75.5671L145.844 79.3656C145.726 79.8181 146.035 80.2713 146.533 80.3779L150.716 81.2723C151.214 81.3788 151.713 81.0984 151.83 80.6459L152.815 76.8473C152.933 76.3949 152.624 75.9417 152.125 75.8351L147.943 74.9407C147.445 74.8341 146.946 75.1146 146.828 75.5671Z" fill="white"/>
<path d="M144.967 59.4606L135.126 60.2411L125.504 61.0216L114.484 61.9092C113.994 61.9435 113.508 61.8028 113.131 61.517C112.753 61.2312 112.513 60.8228 112.462 60.3788L111.501 50.5232L109.985 34.898C109.943 34.452 110.096 34.0089 110.412 33.665C110.727 33.3211 111.179 33.1042 111.67 33.0615L122.556 32.1739L132.194 31.4087L142.17 30.6129C142.658 30.5788 143.142 30.72 143.517 31.0061C143.892 31.2923 144.128 31.7006 144.175 32.1433L145.422 44.9373L146.652 57.5629C146.68 57.7882 146.659 58.0164 146.589 58.2341C146.519 58.4518 146.403 58.6548 146.246 58.8313C146.089 59.0078 145.895 59.1543 145.676 59.2623C145.456 59.3703 145.215 59.4377 144.967 59.4606Z" fill="#FFBF80"/>
<g style="mix-blend-mode:soft-light" opacity="0.5">
<path d="M144.967 59.4605L135.126 60.241L125.504 61.0215L114.484 61.9091C113.994 61.9434 113.508 61.8027 113.131 61.5169C112.753 61.2311 112.513 60.8227 112.462 60.3787L111.501 50.5231C114.074 52.1264 116.921 53.3313 119.927 54.0889C121.532 54.3486 123.175 54.3486 124.78 54.0889C128.104 53.4748 131.275 52.3074 134.132 50.6455C137.76 48.5242 141.524 46.6026 145.405 44.8913L146.652 57.5628C146.68 57.7881 146.659 58.0163 146.589 58.234C146.519 58.4517 146.403 58.6547 146.246 58.8312C146.089 59.0077 145.895 59.1542 145.676 59.2622C145.456 59.3703 145.215 59.4376 144.967 59.4605Z" fill="#222221"/>
</g>
<g style="mix-blend-mode:soft-light" opacity="0.5">
<path d="M135.16 60.241L125.538 61.0215L124.83 54.1195L122.589 32.1433L132.228 31.3781L134.183 50.6762L135.16 60.241Z" fill="#222221"/>
</g>
<path d="M141.774 31.8279L137.499 32.2196C136.99 32.2662 136.618 32.679 136.67 33.1415L137.101 37.0243C137.152 37.4868 137.607 37.8239 138.116 37.7773L142.391 37.3856C142.901 37.3389 143.272 36.9262 143.22 36.4637L142.789 32.5809C142.738 32.1184 142.283 31.7813 141.774 31.8279Z" fill="white"/>
<path d="M237.107 317.07C236.707 320.428 234.99 323.545 232.27 325.849C229.55 328.154 226.008 329.493 222.29 329.623C218.573 329.753 214.928 328.665 212.021 326.557C209.114 324.449 207.139 321.462 206.455 318.141C206.194 316.782 206.143 315.396 206.304 314.024C206.359 313.508 206.455 312.997 206.59 312.494C207.423 309.109 209.604 306.123 212.715 304.111C215.826 302.1 219.647 301.204 223.441 301.597C227.241 301.948 230.755 303.587 233.282 306.188C235.015 307.923 236.233 310.029 236.821 312.31C237.213 313.87 237.31 315.48 237.107 317.07Z" fill="#0E8388"/>
<g style="mix-blend-mode:soft-light" opacity="0.5">
<path d="M237.107 317.07C236.707 320.428 234.99 323.545 232.27 325.849C229.55 328.154 226.008 329.493 222.291 329.623C218.573 329.753 214.928 328.665 212.021 326.557C209.114 324.449 207.139 321.462 206.456 318.141C209.187 318.773 212.049 318.773 214.78 318.141C215.418 319.53 216.545 320.688 217.986 321.432C219.426 322.176 221.098 322.465 222.739 322.253C224.379 322.041 225.896 321.341 227.051 320.261C228.206 319.182 228.934 317.785 229.12 316.289C229.12 316.136 229.12 315.983 229.12 315.83C231.966 315.322 234.602 314.109 236.736 312.325C237.155 313.876 237.281 315.48 237.107 317.07Z" fill="#222221"/>
</g>
<g style="mix-blend-mode:soft-light">
<path d="M229.12 316.274C228.941 317.915 228.109 319.442 226.778 320.565C225.447 321.688 223.71 322.33 221.894 322.372C220.078 322.413 218.308 321.85 216.917 320.789C215.526 319.728 214.61 318.242 214.342 316.61C214.24 316.017 214.24 315.413 214.342 314.82C214.542 313.211 215.37 311.72 216.676 310.617C217.982 309.514 219.679 308.873 221.461 308.808C223.243 308.743 224.991 309.26 226.39 310.264C227.788 311.269 228.745 312.695 229.086 314.284C229.19 314.943 229.202 315.612 229.12 316.274Z" fill="#222221"/>
</g>
<g style="mix-blend-mode:soft-light" opacity="0.5">
<path d="M229.12 316.274C228.941 317.916 228.109 319.442 226.778 320.565C225.447 321.688 223.71 322.33 221.894 322.372C220.078 322.413 218.308 321.85 216.917 320.789C215.526 319.728 214.61 318.242 214.342 316.61C214.495 316.615 214.645 316.652 214.78 316.718C217.053 317.798 219.596 318.326 222.16 318.248C224.621 318.08 226.727 316.289 228.378 314.805C228.577 314.629 228.798 314.475 229.035 314.345C229.151 314.983 229.179 315.63 229.12 316.274Z" fill="#222221"/>
</g>
<g style="mix-blend-mode:soft-light">
<path d="M233.214 306.173C228.124 305.115 222.819 305.267 217.813 306.617C215.134 307.321 212.572 308.351 210.196 309.678C208.938 310.517 207.734 311.422 206.59 312.387C207.423 309.002 209.604 306.016 212.715 304.004C215.826 301.993 219.647 301.097 223.441 301.49C227.231 301.879 230.721 303.552 233.214 306.173Z" fill="#027075"/>
</g>
<path d="M80.3107 301.567C80.0894 303.404 79.4719 305.183 78.4935 306.803C77.515 308.423 76.1948 309.853 74.6081 311.009C73.0215 312.166 71.1995 313.028 69.2462 313.545C67.2929 314.062 65.2466 314.225 63.224 314.024C61.2014 313.823 59.2423 313.262 57.4584 312.374C55.6744 311.485 54.1007 310.286 52.827 308.845C51.5533 307.404 50.6046 305.749 50.035 303.975C49.4655 302.201 49.2862 300.343 49.5075 298.506C49.5075 297.97 49.676 297.45 49.794 296.976C50.6331 293.594 52.8164 290.612 55.9257 288.602C59.035 286.591 62.8516 285.693 66.6447 286.079C70.4505 286.426 73.9716 288.066 76.5024 290.67C77.9553 292.137 79.0502 293.866 79.7152 295.744C80.3803 297.622 80.6004 299.606 80.3612 301.567H80.3107Z" fill="#0E8388"/>
<g style="mix-blend-mode:soft-light" opacity="0.5">
<path d="M80.3107 301.567C79.8979 304.915 78.1765 308.019 75.459 310.313C72.7415 312.607 69.2082 313.94 65.5007 314.069C61.7933 314.199 58.1576 313.117 55.2539 311.019C52.3502 308.922 50.3711 305.948 49.676 302.638C52.4071 303.27 55.2692 303.27 58.0003 302.638C58.6324 304.031 59.7575 305.193 61.1978 305.941C62.6382 306.689 64.3117 306.979 65.9542 306.767C67.5966 306.555 69.1144 305.851 70.2678 304.768C71.4212 303.685 72.1445 302.284 72.3235 300.786C72.3324 300.638 72.3324 300.49 72.3235 300.343C75.1734 299.823 77.8129 298.605 79.9568 296.823C80.3701 298.374 80.4898 299.979 80.3107 301.567Z" fill="#222221"/>
</g>
<g style="mix-blend-mode:soft-light">
<path d="M72.3234 300.771C72.1303 302.401 71.2919 303.912 69.9642 305.023C68.6365 306.133 66.9097 306.768 65.1051 306.81C63.3005 306.851 61.5409 306.295 60.1534 305.246C58.7659 304.198 57.8451 302.727 57.5622 301.108C57.4693 300.514 57.4693 299.911 57.5622 299.317C57.7626 297.708 58.5907 296.217 59.8965 295.114C61.2023 294.012 62.8997 293.37 64.6814 293.305C66.4631 293.24 68.2114 293.757 69.6101 294.761C71.0087 295.766 71.9652 297.192 72.3066 298.781C72.4221 299.44 72.4278 300.111 72.3234 300.771Z" fill="#222221"/>
</g>
<g style="mix-blend-mode:soft-light" opacity="0.5">
<path d="M72.3235 300.771C72.1304 302.401 71.292 303.912 69.9642 305.023C68.6365 306.133 66.9098 306.768 65.1052 306.81C63.3006 306.851 61.5409 306.295 60.1534 305.246C58.766 304.198 57.8452 302.727 57.5622 301.108C57.715 301.114 57.8645 301.151 58.0003 301.215C60.2712 302.287 62.806 302.813 65.3641 302.745C67.8243 302.562 69.9475 300.771 71.5989 299.287C71.7919 299.111 72.0068 298.957 72.2392 298.827C72.3722 299.468 72.4006 300.123 72.3235 300.771Z" fill="#222221"/>
</g>
<g style="mix-blend-mode:soft-light">
<path d="M76.4351 290.671C71.3388 289.615 66.0291 289.768 61.0166 291.114C58.335 291.834 55.7771 292.89 53.4169 294.252C52.146 295.077 50.9357 295.977 49.794 296.945C50.6332 293.563 52.8165 290.582 55.9257 288.571C59.035 286.561 62.8517 285.662 66.6448 286.049C70.4314 286.418 73.9264 288.068 76.4351 290.671Z" fill="#0E8388"/>
</g>
<path d="M277.717 143.938C273.909 141.78 268.214 141.535 262.417 143.203C191.566 163.767 117.891 175.208 43.5424 177.193H42.9863C42.9863 177.086 42.9863 177.009 42.9863 176.933C41.486 170.939 38.0334 165.494 33.078 161.307C26.2574 155.512 17.4546 152.018 8.13892 151.406L3.37015 151.054C2.97672 151.005 2.57641 151.027 2.19273 151.12C1.80904 151.214 1.44969 151.375 1.13577 151.596C0.821856 151.817 0.559687 152.093 0.364651 152.407C0.169615 152.721 0.0456428 153.068 0 153.426C0.0218966 154.179 0.348522 154.898 0.917425 155.445C1.48633 155.993 2.25759 156.331 3.08369 156.395L7.83561 156.793C11.3183 157.097 14.7285 157.886 17.9461 159.134C22.3611 160.722 26.2905 163.252 29.4023 166.51C32.5141 169.767 34.717 173.657 35.8247 177.851C37.2065 183.534 38.577 189.237 39.9363 194.961C41.8685 203.123 43.7895 211.336 45.6993 219.6C46.1205 221.436 46.5586 223.273 46.9799 225.124C47.1821 226.027 47.4012 226.961 47.6034 227.894C49.7603 237.27 51.8723 246.703 53.9393 256.191L53.973 256.512C54.1562 257.231 54.4275 257.93 54.7818 258.594C52.3035 258.848 50.0336 259.975 48.4587 261.731C46.8838 263.488 46.1291 265.735 46.3564 267.99C46.7946 274.112 53.0967 280.371 60.5616 281.657C119.68 291.742 179.804 296.138 239.938 294.772C243.308 294.772 245.853 292.645 245.735 290.181C245.617 287.717 242.803 285.88 239.517 286.003C179.537 288.212 119.469 284.621 60.3257 275.29C58.6528 275.017 57.1178 274.271 55.9404 273.158C54.763 272.044 54.0036 270.621 53.7708 269.092C53.5686 266.246 56.1467 264.333 59.5843 264.792C61.539 265.037 63.4768 265.312 65.4315 265.572C69.1611 266.052 72.8908 266.511 76.6204 266.95C127.344 272.883 178.562 274.568 229.625 271.985C236.551 271.663 242.449 268.097 244.471 263.124C244.471 262.971 244.589 262.802 244.622 262.649C250.015 246.917 255.441 231.047 260.9 215.039C261.052 214.565 261.204 214.121 261.372 213.662C262.316 210.815 263.271 207.964 264.237 205.107C267.854 194.486 271.499 183.733 275.173 172.847L276.032 170.26C277.835 164.889 279.638 159.548 281.441 154.099C282.857 149.83 281.458 146.095 277.717 143.938ZM173.04 171.484C172.67 175.234 172.282 178.999 171.911 182.763C171.692 184.829 171.49 186.926 171.271 189.007C170.934 192.344 170.614 195.695 170.277 199.047C148.304 201.618 126.398 203.342 104.559 204.219C103.851 201.006 103.127 197.792 102.419 194.578L102.318 194.149C101.307 189.558 100.262 185.059 99.251 180.529C123.718 178.611 148.315 175.601 173.04 171.5V171.484ZM166.772 234.23C148.236 235.189 129.756 235.572 111.333 235.378C110.76 232.669 110.17 229.991 109.648 227.313C109.624 227.143 109.59 226.974 109.547 226.808C109.126 224.925 108.738 223.043 108.317 221.176L106.092 210.938C127.178 210.326 148.343 208.928 169.586 206.744C169.198 210.616 168.828 214.488 168.423 218.345C168.204 220.594 167.985 222.859 167.749 225.124V225.247C167.412 228.195 167.087 231.169 166.772 234.169V234.23ZM49.7266 204.663C48.8279 200.745 47.9179 196.838 46.9968 192.94L44.6714 183.054H45.4465C60.4549 182.84 75.5532 182.212 90.7413 181.172C91.7749 185.722 92.8027 190.283 93.825 194.853L93.9261 195.282C94.6002 198.343 95.291 201.403 95.9819 204.464C80.4905 204.974 65.072 205.041 49.7266 204.663ZM56.1467 232.96L54.4617 225.736C54.4617 225.736 54.4617 225.736 54.4617 225.629L53.1978 220.043C52.4901 216.983 51.7655 213.815 51.0578 210.739C66.4145 211.29 81.8498 211.412 97.3637 211.106C98.1051 214.458 98.8297 217.824 99.5711 221.191C99.9756 223.135 100.414 225.048 100.818 226.991C100.818 227.068 100.818 227.16 100.818 227.236C101.374 229.899 101.947 232.531 102.503 235.194C87.0005 234.847 71.5483 234.103 56.1467 232.96ZM76.1991 260.599C72.4414 260.201 68.7174 259.787 64.9934 259.344C64.112 259.218 63.2902 258.861 62.6287 258.318C61.9671 257.774 61.4947 257.067 61.2694 256.283L61.1346 255.717C59.955 250.207 58.7417 244.683 57.5285 239.189C72.9638 240.505 88.4777 241.418 104.07 241.928C105.587 249.07 107.081 256.211 108.553 263.353C97.7569 262.639 86.9724 261.721 76.1991 260.599ZM117.332 263.935C115.832 256.665 114.299 249.396 112.765 242.173C130.447 242.56 148.202 242.423 166.031 241.76C165.244 249.667 164.463 257.573 163.688 265.48C148.174 265.358 132.722 264.843 117.332 263.935ZM233.097 261.211C232.79 261.921 232.255 262.531 231.56 262.96C230.865 263.389 230.044 263.616 229.204 263.613C210.702 264.777 192.239 265.399 173.816 265.48L176.242 241.3C198.036 240.28 219.886 238.418 241.792 235.715C238.871 244.244 235.972 252.743 233.097 261.211ZM256.081 193.476L251.312 207.54C250.369 210.326 249.431 213.106 248.498 215.881L248.144 216.906C247.049 220.151 245.971 223.395 244.875 226.624C222.228 229.838 199.597 232.149 176.984 233.557C177.298 230.496 177.613 227.435 177.927 224.374C177.927 224.206 177.927 224.022 177.927 223.854C178.146 221.666 178.365 219.508 178.568 217.319C178.972 213.402 179.359 209.469 179.764 205.52C205.141 202.592 230.546 198.562 255.98 193.43L256.081 193.476ZM262.619 174.101C261.496 177.438 260.372 180.769 259.249 184.095C233.052 189.859 206.849 194.45 180.64 197.868C180.994 194.501 181.331 191.119 181.668 187.752C181.837 186.084 182.022 184.401 182.19 182.733C182.645 178.402 183.067 174.071 183.505 169.74C209.96 164.996 236.484 159.027 262.906 151.773C263.697 151.507 264.542 151.401 265.383 151.462C266.224 151.523 267.04 151.749 267.775 152.125C268.329 152.435 268.749 152.908 268.964 153.465C269.178 154.023 269.175 154.63 268.955 155.186C267.371 159.971 265.787 164.736 264.203 169.48C263.664 170.949 263.141 172.525 262.619 174.101Z" fill="#0E8388"/>
<g style="mix-blend-mode:soft-light" opacity="0.8">
<path d="M239.517 286.095C179.537 288.304 119.469 284.713 60.3257 275.382C58.6528 275.109 57.1178 274.363 55.9404 273.249C54.763 272.136 54.0036 270.713 53.7708 269.184C53.5686 266.337 56.1467 264.424 59.5843 264.884C61.539 265.128 63.4768 265.404 65.4315 265.664C69.1611 266.144 72.8908 266.603 76.6204 267.041C127.344 272.975 178.562 274.66 229.625 272.076C236.551 271.755 242.449 268.189 244.471 263.215C244.471 263.062 244.589 262.894 244.622 262.741C250.015 247.009 255.441 231.139 260.9 215.131C259.047 216.257 256.945 217.002 254.742 217.314C252.539 217.626 250.287 217.497 248.144 216.937C247.049 220.181 245.971 223.426 244.875 226.655C222.228 229.848 199.597 232.149 176.984 233.557C177.298 230.496 177.613 227.435 177.927 224.374C177.927 224.206 177.927 224.022 177.927 223.854C175.271 225.471 172.017 226.065 168.878 225.507C168.428 225.386 167.993 225.222 167.581 225.017V225.14C167.3 228.119 167.002 231.113 166.688 234.123C148.152 235.082 129.672 235.464 111.249 235.271C110.676 232.562 110.086 229.884 109.564 227.206C109.54 227.036 109.506 226.867 109.463 226.701C108.285 227.408 106.927 227.827 105.519 227.918C104.111 228.01 102.701 227.769 101.425 227.221L100.852 226.93C100.852 227.007 100.852 227.098 100.852 227.175C101.408 229.838 101.981 232.47 102.537 235.133C86.9892 234.796 71.4978 234.057 56.0625 232.914L54.3774 225.69C53.5615 226.603 52.4797 227.29 51.2552 227.671C50.0307 228.053 48.7128 228.114 47.4517 227.848C49.6086 237.224 51.7206 246.657 53.7876 256.145L53.973 256.512C54.1562 257.231 54.4275 257.929 54.7818 258.594C52.3035 258.848 50.0336 259.975 48.4587 261.731C46.8838 263.488 46.1291 265.734 46.3564 267.99C46.7946 274.112 53.0967 280.371 60.5616 281.656C119.68 291.741 179.804 296.138 239.938 294.772C243.308 294.772 245.853 292.645 245.735 290.181C245.617 287.717 242.803 285.972 239.517 286.095ZM241.792 235.714C238.871 244.244 235.972 252.743 233.097 261.211C232.79 261.921 232.255 262.531 231.56 262.96C230.865 263.388 230.044 263.616 229.204 263.613C210.702 264.776 192.239 265.399 173.816 265.48L176.242 241.3C198.081 240.219 219.93 238.357 241.792 235.714ZM165.963 241.836C165.177 249.743 164.396 257.65 163.621 265.557C148.107 265.434 132.655 264.924 117.264 264.027C115.765 256.757 114.231 249.488 112.698 242.264C130.425 242.581 148.202 242.412 166.031 241.759L165.963 241.836ZM104.003 242.004C105.519 249.146 107.014 256.288 108.485 263.43C97.6895 262.675 86.905 261.741 76.1317 260.629C72.374 260.231 68.65 259.818 64.926 259.374C64.0446 259.248 63.2227 258.892 62.5612 258.348C61.8997 257.805 61.4273 257.097 61.202 256.313L61.0671 255.747C59.8876 250.238 58.6743 244.713 57.4611 239.219C72.9413 240.545 88.4777 241.448 104.07 241.928L104.003 242.004Z" fill="#222221"/>
</g>
<g style="mix-blend-mode:soft-light" opacity="0.5">
<path d="M281.458 154.099C279.655 159.517 277.852 164.812 276.049 170.26C273.269 167.903 268.534 168.271 264.254 169.372C265.838 164.628 267.422 159.864 269.006 155.079C269.226 154.523 269.229 153.915 269.014 153.358C268.799 152.801 268.38 152.327 267.826 152.018C267.091 151.642 266.275 151.416 265.434 151.355C264.593 151.294 263.747 151.4 262.956 151.666C236.534 158.905 210.011 164.888 183.555 169.633C183.117 173.964 182.696 178.295 182.241 182.625C180.705 181.726 178.911 181.256 177.084 181.275C175.256 181.294 173.475 181.801 171.962 182.733C172.333 178.968 172.72 175.203 173.091 171.454C148.377 175.535 123.78 178.55 99.3015 180.498C100.313 185.089 101.357 189.573 102.368 194.119L95.9145 194.654L93.8756 194.823C92.8533 190.242 91.8254 185.681 90.7919 181.141C75.6262 182.161 60.5279 182.789 45.4971 183.023H44.7219L47.0473 192.879C46.1796 192.787 45.3031 192.787 44.4354 192.879C42.7648 193.097 41.2102 193.782 39.9868 194.838C38.6163 189.114 37.2458 183.411 35.8753 177.728C34.7576 173.535 32.545 169.648 29.4243 166.396C26.3036 163.144 22.3666 160.621 17.9461 159.042C14.7285 157.794 11.3183 157.005 7.83561 156.701L3.08369 156.303C2.25759 156.239 1.48633 155.901 0.917425 155.353C0.348522 154.806 0.0218966 154.087 0 153.334C0.0456428 152.976 0.169615 152.629 0.364651 152.315C0.559687 152.001 0.821856 151.725 1.13577 151.504C1.44969 151.283 1.80904 151.122 2.19273 151.028C2.57641 150.935 2.97672 150.913 3.37015 150.962L8.13892 151.314C17.4546 151.925 26.2574 155.42 33.078 161.215C38.0323 165.433 41.4683 170.911 42.9357 176.932C42.9357 176.932 42.9357 177.086 42.9357 177.193H43.4918C117.854 175.232 191.547 163.811 262.417 143.264C268.214 141.596 273.909 141.841 277.717 143.999C281.526 146.157 282.857 149.829 281.458 154.099Z" fill="white"/>
</g>
<path d="M263.074 1L269.461 6.80014" stroke="white" stroke-width="2" stroke-linecap="round" stroke-linejoin="round"/>
</svg>
