<svg width="311" height="248" viewBox="0 0 311 248" fill="none" xmlns="http://www.w3.org/2000/svg">
<path d="M207 231.599V248H162C162 248 163.918 236.328 173.926 237.051C183.934 237.774 184.119 231.599 184.119 231.599C184.119 231.599 199.419 225.752 207 231.599Z" fill="#222221"/>
<path d="M303.689 218.258L311 233.829L281.024 248H270.688C270.688 248 266.655 236.723 278.114 236.516C283.82 236.516 283.155 227.973 283.155 227.973C283.155 227.973 294.156 216.122 303.689 218.258Z" fill="#222221"/>
<path d="M237 96.0175C237 96.0175 252.827 192.875 284.482 229.999C284.482 229.999 295.109 230.34 303 218.967C303 218.967 273.335 168.922 271.051 108.415C271.097 108.415 262.279 90.6264 237 96.0175Z" fill="#0E8388"/>
<path d="M272.314 82.3814C272.314 82.3814 285.622 106.967 267.384 121.66C249.146 136.353 219.906 179.322 206.598 231.324C206.598 231.324 195.185 237.346 184 231.324C184 231.324 197.285 152.245 238.052 96.4402C238.052 96.4402 257.477 75.5217 272.314 82.3814Z" fill="#0E8388"/>
<path d="M230.256 30.9999C231.938 30.5576 233.525 29.8121 234.938 28.8001C235.358 28.5141 238.361 26.4903 237.964 25.8963C236.412 23.5277 234.629 21.3172 232.641 19.2968C232.539 19.1703 232.4 19.0782 232.243 19.0329C232.077 18.989 231.902 18.989 231.736 19.0329C229.682 19.8248 227.318 19.9788 226.28 22.1786C225.596 23.4985 226.28 24.5984 227.098 25.6983C227.407 26.2703 230.212 31.0219 230.256 30.9999Z" fill="#F4B0B0"/>
<path d="M215 19.2981C215.321 19.0493 218.23 20.4065 218.642 20.6327C219.953 21.5543 220.867 22.9255 221.208 24.478C221.251 24.7572 221.351 25.025 221.5 25.2657C221.65 25.5065 221.846 25.7155 222.078 25.8805C222.515 26.0398 222.994 26.0398 223.43 25.8805C225.659 25.2031 227.703 24.0353 229.409 22.4649C230.729 21.427 231.801 20.1139 232.547 18.6195C234.311 14.661 230.577 9.34532 227.233 7.30953C225.019 6.05819 222.406 5.68615 219.925 6.26903C218.937 6.38515 217.976 6.66825 217.085 7.10596C216.637 7.33362 216.244 7.65326 215.932 8.04342C215.619 8.43359 215.396 8.88522 215.275 9.36795C214.771 11.8109 217.726 14.0729 217.016 16.448C216.638 17.5708 215.937 18.5609 215 19.2981Z" fill="#F4B0B0"/>
<path d="M221.583 10.3901C219.604 10.8707 217.669 11.5161 215.8 12.3192C215.272 12.5395 214.714 12.683 214.144 12.7454C213.19 12.7717 212.25 12.5138 211.446 12.0051C210.329 11.4371 209.408 10.5542 208.798 9.4682C208.189 8.38219 207.918 7.14182 208.021 5.90388C208.206 5.08425 208.562 4.31176 209.065 3.63582C209.569 2.95989 210.21 2.39538 210.947 1.97844C212.427 1.16415 214.051 0.638703 215.732 0.430692C217.935 0.072292 220.169 -0.0629779 222.399 0.0269491C224.216 0.0508122 226.014 0.400391 227.706 1.05876C229.406 1.72644 230.784 3.0099 231.561 4.64775C231.931 4.40655 232.365 4.27799 232.808 4.27799C233.252 4.27799 233.685 4.40655 234.056 4.64775C234.788 5.14026 235.369 5.82334 235.734 6.62166C237.106 9.24722 237.375 12.3024 236.482 15.1231C235.824 17.1419 234.577 18.9588 233.942 21C233.942 20.8206 231.017 17.9494 230.699 17.5456C229.676 16.2025 228.795 14.7594 228.069 13.2389C227.547 12.1846 227.343 11.3098 226.232 10.7714C224.758 10.1754 223.135 10.0423 221.583 10.3901Z" fill="#0E8388"/>
<path d="M227.179 11.2995L227.314 10.9981C227.407 10.7495 227.558 10.5284 227.754 10.3546C227.95 10.1807 228.184 10.0593 228.436 10.0012C228.713 9.99109 228.988 10.0464 229.241 10.1629C229.494 10.2795 229.718 10.4541 229.895 10.6735C230.268 11.0717 230.558 11.5446 230.748 12.063C230.937 12.5813 231.021 13.1342 230.996 13.6876C230.96 14.5175 230.756 15.3305 230.397 16.0736C230.037 16.8166 229.53 17.473 228.908 18C228.526 16.7944 227.763 15.6815 227.359 14.5454C226.952 13.5138 226.889 12.3722 227.179 11.2995Z" fill="#F4B0B0"/>
<path d="M235.07 26.6017C233.061 26.8268 231.162 27.6431 229.608 28.9491C228.054 30.2552 226.915 31.9934 226.331 33.9479C222.21 44.3871 224.214 56.2365 227.255 67.0625C229.961 76.4706 233.264 85.6932 237.143 94.6731C237.3 95.2164 237.665 95.6744 238.156 95.9467C238.578 96.0458 239.02 96.006 239.417 95.833C250.409 92.4897 261.625 90.0334 270.95 82.9147C271.362 82.6434 271.696 82.2667 271.918 81.823C272.067 81.2232 272.012 80.5903 271.761 80.0263C268.855 70.9288 265.589 61.9906 262.323 53.0069C259.778 46.0474 257.278 36.4042 252.053 30.923C247.458 26.0559 241.377 25.2144 235.07 26.6017Z" fill="#F4A121"/>
<g opacity="0.33">
<path d="M253.235 57.2357C255.666 50.4198 256.916 34.993 246.192 43.6038C238.77 49.7095 231.994 56.5614 225.971 64.0517L226.789 67.0961C228.675 73.7076 230.947 80.2055 233.446 86.6125C242.565 78.7787 249.402 68.6299 253.235 57.2357Z" fill="black"/>
</g>
<path d="M184.552 77.891C182.787 77.696 181.005 77.9714 179.361 78.6933C175.853 80.6491 175.369 86.2153 172 88.5472C172.403 89.2099 173.015 89.6886 173.722 89.892C174.428 90.0955 175.179 90.0095 175.83 89.6504C177.192 89.0737 178.322 87.9705 179.684 87.3938C182.199 86.3658 185.014 87.3938 187.667 87.0929C190.105 86.7348 192.379 85.5605 194.174 83.7331C195.974 82.003 197.081 78.7184 194.382 77.4647C191.682 76.2111 187.16 77.891 184.552 77.891Z" fill="#F4B0B0"/>
<path d="M246.183 34.0002C244.869 34.0178 243.566 34.242 242.32 34.6647C237.491 36.406 233.336 41.8363 230.215 45.7543C219.547 59.3414 205.847 72.6994 189.048 77.6027C188.521 77.6739 188.035 77.9337 187.678 78.3359C187.473 78.6187 187.342 78.9497 187.296 79.2982C186.735 82.1394 186.465 90.2733 191.361 88.8298C203.684 85.1985 215.531 80.0593 226.644 73.5243C232.986 69.9913 238.845 65.6234 244.072 60.5329C248.676 55.9504 256.312 46.9916 254.807 39.9116C253.998 35.7186 250.023 33.9773 246.183 34.0002Z" fill="#F4A121"/>
<path d="M238.713 22.1403C238.578 22.0623 238.427 22.0145 238.272 22C238.078 22.0152 237.888 22.0709 237.716 22.1636L230.323 26.0435C229.234 26.6044 228.006 27.329 228.006 28.5444C227.975 29.0561 228.063 29.5681 228.261 30.0402C228.377 30.4687 228.582 30.8672 228.863 31.2088C229.228 31.5341 229.663 31.769 230.134 31.8948C230.605 32.0205 231.098 32.0338 231.575 31.9334C233.326 31.5769 234.993 30.8867 236.488 29.9C237.786 29.1287 240.312 28.1938 240.914 26.6745C241.099 25.7795 240.983 24.8478 240.584 24.0267C240.186 23.2056 239.527 22.5418 238.713 22.1403Z" fill="#F4A121"/>
<path d="M16.9988 223.932H145.116C145.829 223.936 146.52 223.684 147.065 223.221C147.611 222.758 147.975 222.114 148.093 221.404L164.462 106.143L181.125 89.1764C181.688 88.6056 182.002 87.8326 182 87.0275C181.998 86.2224 181.679 85.4512 181.114 84.8834C180.549 84.3156 179.784 83.9979 178.987 84C178.19 84.0021 177.426 84.324 176.864 84.8948L159.502 102.59C159.046 103.052 158.753 103.652 158.668 104.298L142.523 217.942H16.9988C16.2034 217.942 15.4407 218.261 14.8783 218.829C14.3159 219.397 14 220.168 14 220.971C14 221.774 14.3159 222.545 14.8783 223.113C15.4407 223.681 16.2034 224 16.9988 224V223.932Z" fill="#280008"/>
<path d="M123 247C131.284 247 138 240.508 138 232.5C138 224.492 131.284 218 123 218C114.716 218 108 224.492 108 232.5C108 240.508 114.716 247 123 247Z" fill="#027075"/>
<path d="M116 233.5C116 234.983 116.411 236.433 117.18 237.667C117.949 238.9 119.042 239.861 120.321 240.429C121.6 240.997 123.008 241.145 124.366 240.856C125.724 240.566 126.971 239.852 127.95 238.803C128.929 237.754 129.595 236.418 129.865 234.963C130.136 233.508 129.997 232 129.467 230.63C128.937 229.259 128.04 228.088 126.889 227.264C125.738 226.44 124.384 226 123 226C121.143 226 119.363 226.79 118.05 228.197C116.738 229.603 116 231.511 116 233.5Z" fill="#0E8388"/>
<path d="M14.5 247C22.5081 247 29 240.508 29 232.5C29 224.492 22.5081 218 14.5 218C6.49184 218 0 224.492 0 232.5C0 240.508 6.49184 247 14.5 247Z" fill="#027075"/>
<path d="M6 233.5C6 234.983 6.46916 236.433 7.34821 237.667C8.22726 238.9 9.47679 239.861 10.9386 240.429C12.4004 240.997 14.0089 241.145 15.5608 240.856C17.1126 240.566 18.5382 239.852 19.657 238.803C20.7758 237.754 21.5376 236.418 21.8463 234.963C22.155 233.508 21.9965 232 21.391 230.63C20.7855 229.259 19.7603 228.088 18.4447 227.264C17.1291 226.44 15.5823 226 14 226C11.8783 226 9.84347 226.79 8.34317 228.197C6.84288 229.603 6 231.511 6 233.5Z" fill="#0E8388"/>
<path d="M82 218H140L140 92H82L82 218Z" fill="#FFB56D"/>
<path d="M88 194H111V189H88V194Z" fill="#87BDBF" fill-opacity="0.76"/>
<path d="M88 212H119V197H88V212Z" fill="#87BDBF" fill-opacity="0.76"/>
<path d="M14 217H76L76 144H14L14 217Z" fill="#FFB56D"/>
<path d="M45 166H72V153H45V166Z" fill="#87BDBF" fill-opacity="0.76"/>
<path d="M48 144H82V90H48L48 144Z" fill="#0E8388"/>
<path d="M50 137H65V130H50V137Z" fill="#87BDBF" fill-opacity="0.76"/>
</svg>
