<svg width="322" height="280" viewBox="0 0 322 280" fill="none" xmlns="http://www.w3.org/2000/svg">
<path d="M34.9981 223.069C34.9981 226.254 36.2633 229.308 38.5153 231.56C40.7673 233.812 43.8217 235.077 47.0065 235.077H266.521C269.706 235.077 272.76 233.812 275.012 231.56C277.264 229.308 278.529 226.254 278.529 223.069H34.9981Z" fill="#56322D"/>
<path d="M312.441 223.069H194.903V105.53H289.961L312.441 164.299V223.069Z" fill="#0E8388"/>
<path d="M312.874 204.912H194.927V223.069H312.922C315.329 223.069 317.638 222.112 319.341 220.41C321.044 218.707 322 216.398 322 213.99C322 211.583 321.044 209.274 319.341 207.571C317.638 205.868 315.329 204.912 312.922 204.912H312.874Z" fill="#CCA574"/>
<path d="M257.851 177.557C246.488 177.557 235.59 182.071 227.554 190.106C219.519 198.141 215.005 209.039 215.005 220.403V223.069H300.721V220.403C300.715 209.037 296.195 198.139 288.156 190.105C280.117 182.07 269.217 177.557 257.851 177.557Z" fill="#56322D"/>
<path d="M194.879 66.6227H2.1431V223.069H194.879V66.6227Z" fill="#FFB56D"/>
<g opacity="0.33">
<path d="M194.879 73.8277H2.1431V77.8625H194.879V73.8277Z" fill="black"/>
<path d="M194.879 84.7794H2.14313V88.8142H194.879V84.7794Z" fill="black"/>
<path d="M194.879 95.7311H2.14313V99.766H194.879V95.7311Z" fill="black"/>
<path d="M194.879 106.683H2.14313V110.718H194.879V106.683Z" fill="black"/>
<path d="M194.879 117.635H2.14313V121.669H194.879V117.635Z" fill="black"/>
<path d="M194.879 128.562H2.14313V132.597H194.879V128.562Z" fill="black"/>
<path d="M194.879 139.514H2.14313V143.549H194.879V139.514Z" fill="black"/>
<path d="M194.879 150.466H2.14313V154.5H194.879V150.466Z" fill="black"/>
<path d="M194.736 161H2V165.035H194.736V161Z" fill="black"/>
<path d="M194.879 172.369H2.14313V176.404H194.879V172.369Z" fill="black"/>
<path d="M194.879 183.321H2.14313V187.356H194.879V183.321Z" fill="black"/>
<path d="M194.879 194.272H2.14313V198.307H194.879V194.272Z" fill="black"/>
<path d="M194.879 205.2H2.14313V209.235H194.879V205.2Z" fill="black"/>
<path d="M194.879 216.152H2.14313V220.187H194.879V216.152Z" fill="black"/>
</g>
<path d="M55.6286 177.557C44.2651 177.557 33.367 182.071 25.3318 190.106C17.2966 198.141 12.7824 209.039 12.7824 220.403V223.069H98.4988V220.403C98.4924 209.037 93.9729 198.139 85.9339 190.105C77.8949 182.07 66.9943 177.557 55.6286 177.557Z" fill="#56322D"/>
<path d="M84.0125 251.09C99.4788 235.624 99.4788 210.548 84.0125 195.082C68.5462 179.616 43.4704 179.616 28.0042 195.082C12.5379 210.548 12.5379 235.624 28.0042 251.09C43.4705 266.556 68.5462 266.556 84.0125 251.09Z" fill="#280008"/>
<path d="M73.9759 241.053C83.8991 231.13 83.8991 215.042 73.9759 205.118C64.0527 195.195 47.9641 195.195 38.0409 205.118C28.1177 215.042 28.1177 231.13 38.0409 241.053C47.9641 250.977 64.0527 250.977 73.9759 241.053Z" fill="#CCA574"/>
<path d="M70.0389 223.069C70.0389 225.862 69.2106 228.592 67.6589 230.915C66.1072 233.237 63.9016 235.047 61.3212 236.116C58.7407 237.185 55.9013 237.464 53.1619 236.919C50.4225 236.374 47.9062 235.03 45.9313 233.055C43.9563 231.08 42.6113 228.563 42.0664 225.824C41.5215 223.084 41.8011 220.245 42.87 217.665C43.9389 215.084 45.7489 212.879 48.0712 211.327C50.3936 209.775 53.1239 208.947 55.9169 208.947C59.6623 208.947 63.2543 210.435 65.9027 213.083C68.5511 215.731 70.0389 219.323 70.0389 223.069Z" fill="#0E8388"/>
<path d="M286.415 251.078C301.881 235.612 301.881 210.536 286.415 195.07C270.949 179.604 245.873 179.604 230.407 195.07C214.94 210.536 214.94 235.612 230.407 251.078C245.873 266.544 270.949 266.544 286.415 251.078Z" fill="#280008"/>
<path d="M276.378 241.042C286.301 231.118 286.301 215.03 276.378 205.107C266.455 195.183 250.366 195.183 240.443 205.107C230.52 215.03 230.52 231.118 240.443 241.042C250.366 250.965 266.455 250.965 276.378 241.042Z" fill="#CCA574"/>
<path d="M258.427 237.191C266.227 237.191 272.549 230.868 272.549 223.069C272.549 215.269 266.227 208.947 258.427 208.947C250.628 208.947 244.305 215.269 244.305 223.069C244.305 230.868 250.628 237.191 258.427 237.191Z" fill="#0E8388"/>
<path d="M272.525 112.879H211.306V160.841H272.525V112.879Z" fill="#F1E9F7"/>
<path d="M278.722 160.841H304.228L288.665 112.879H278.722V160.841Z" fill="#F1E9F7"/>
<path d="M18.1622 145.758C18.1622 145.758 42.8036 118.211 102.702 114.825L98.5227 130.676C98.5227 130.676 134.116 122.078 163.104 124.023C163.104 124.023 92.0862 150.105 78.0604 163.147C78.0604 163.147 78.0604 140.451 82.4074 132.237C82.4074 132.141 40.3778 134.542 18.1622 145.758Z" fill="#280008"/>
<path d="M250.502 0.600206C246.638 0.602033 242.842 1.62036 239.497 3.55296C236.151 5.48555 233.372 8.26441 231.44 11.6105C229.508 14.9565 228.49 18.7521 228.489 22.6159C228.487 26.4798 229.503 30.276 231.432 33.6235L250.502 66.6227L269.547 33.6235C271.484 30.279 272.505 26.4834 272.508 22.6187C272.512 18.754 271.497 14.9567 269.566 11.6089C267.635 8.26105 264.857 5.48095 261.51 3.54837C258.163 1.6158 254.366 0.598944 250.502 0.600206Z" fill="#FFB56D"/>
<path d="M261.454 22.8399C261.454 24.9727 260.821 27.0576 259.636 28.8309C258.451 30.6043 256.767 31.9864 254.797 32.8026C252.826 33.6188 250.658 33.8324 248.566 33.4163C246.474 33.0002 244.553 31.9731 243.045 30.465C241.537 28.9569 240.51 27.0355 240.094 24.9437C239.678 22.8519 239.891 20.6836 240.707 18.7132C241.523 16.7427 242.906 15.0586 244.679 13.8737C246.452 12.6888 248.537 12.0563 250.67 12.0563C253.53 12.0563 256.273 13.1924 258.295 15.2148C260.318 17.2371 261.454 19.9799 261.454 22.8399Z" fill="#EAF4FD"/>
</svg>
