
<svg width="18" height="16" viewBox="0 0 18 16" fill="none" xmlns="http://www.w3.org/2000/svg">
<path fill-rule="evenodd" clip-rule="evenodd" d="M4.40261 0.346055C1.34295 1.33113 -0.0217593 4.67138 1.00404 7.85791C1.52458 9.3584 2.37114 10.707 3.48339 11.8135C5.0092 13.2954 6.68547 14.5995 8.48742 15.7076L8.69205 15.8301C8.88803 15.9474 9.13319 15.9453 9.32717 15.8248L9.5182 15.706C11.3177 14.5995 12.9939 13.2954 14.5145 11.8186C15.632 10.707 16.4786 9.3584 16.9947 7.87094C18.0243 4.67332 16.6539 1.33148 13.5933 0.346104L13.3719 0.280173C11.9687 -0.105781 10.4775 0.0843973 9.22045 0.796103L8.99701 0.928558L8.77751 0.796842C7.45163 0.044513 5.86702 -0.124994 4.40261 0.346055ZM8.47889 2.04521L8.64283 2.1628C8.85895 2.31757 9.15055 2.3145 9.36335 2.15519C10.4717 1.32545 11.9061 1.084 13.2201 1.50555C15.5914 2.26901 16.6706 4.90078 15.8387 7.48497C15.3875 8.78477 14.6406 9.97463 13.6597 10.9504L13.2197 11.3684C12.0342 12.4701 10.7521 13.4674 9.39096 14.3463L9.00107 14.5915L9.12005 14.6665C7.40043 13.609 5.79481 12.3599 4.3382 10.9453C3.36256 9.97463 2.61566 8.78477 2.16008 7.47194C1.33175 4.89832 2.40624 2.26841 4.7763 1.50536C6.02778 1.1028 7.39216 1.30239 8.47889 2.04521ZM12.2252 3.4031C11.9046 3.30075 11.5616 3.47751 11.4592 3.79789C11.3568 4.11827 11.5337 4.46095 11.8543 4.56329C12.4845 4.76444 12.9338 5.33167 12.9901 6.00078C13.0183 6.33592 13.3131 6.58477 13.6485 6.5566C13.9839 6.52842 14.233 6.2339 14.2048 5.89875C14.1073 4.74047 13.3264 3.75457 12.2252 3.4031Z" fill="#676767"/>
</svg>
