<svg width="28" height="28" viewBox="0 0 28 28" fill="none" xmlns="http://www.w3.org/2000/svg">
<rect x="0.5" y="0.5" width="27" height="27" rx="6.5" stroke="#DE001B"/>
<path fill-rule="evenodd" clip-rule="evenodd" d="M17.2077 6.08387C17.7335 6.08387 18.2585 6.15804 18.7577 6.32554C21.8335 7.32554 22.9419 10.7005 22.016 13.6505C21.491 15.158 20.6327 16.5339 19.5085 17.658C17.8994 19.2164 16.1335 20.5997 14.2327 21.7914L14.0244 21.9172L13.8077 21.783C11.9002 20.5997 10.1244 19.2164 8.5002 17.6497C7.38353 16.5255 6.52436 15.158 5.99103 13.6505C5.04936 10.7005 6.1577 7.32554 9.26686 6.30804C9.50853 6.22471 9.7577 6.16637 10.0077 6.13387H10.1077C10.3419 6.09971 10.5744 6.08387 10.8077 6.08387H10.8994C11.4244 6.09971 11.9327 6.19137 12.4252 6.35887H12.4744C12.5077 6.37471 12.5327 6.39221 12.5494 6.40804C12.7335 6.46721 12.9077 6.53387 13.0744 6.62554L13.391 6.76721C13.4675 6.80802 13.5534 6.87037 13.6277 6.92426C13.6747 6.95841 13.717 6.98916 13.7494 7.00887C13.763 7.0169 13.7768 7.02497 13.7907 7.0331C13.8622 7.07481 13.9366 7.11826 13.9994 7.16637C14.9252 6.45887 16.0494 6.07554 17.2077 6.08387ZM19.4244 12.0839C19.766 12.0747 20.0577 11.8005 20.0827 11.4497V11.3505C20.1077 10.183 19.4002 9.12554 18.3244 8.71721C17.9827 8.59971 17.6077 8.78387 17.4827 9.13387C17.366 9.48387 17.5494 9.86721 17.8994 9.99137C18.4335 10.1914 18.791 10.7172 18.791 11.2997V11.3255C18.7752 11.5164 18.8327 11.7005 18.9494 11.8422C19.066 11.9839 19.241 12.0664 19.4244 12.0839Z" fill="#DE001B"/>
</svg>
