<svg width="20" height="18" viewBox="0 0 20 18" fill="none" xmlns="http://www.w3.org/2000/svg">
<path d="M19.3177 5.71936L14.7904 1.19206C14.4168 0.818503 14.0379 0.629089 13.6643 0.629089C13.1512 0.629089 12.5521 1.01932 12.5521 2.11913V3.66046C9.26285 3.80382 6.19117 5.15276 3.84836 7.49546C1.36695 9.97667 0.000273466 13.2757 2.84374e-08 16.7848C-3.82694e-05 16.9078 0.0386072 17.0276 0.110463 17.1274C0.18232 17.2272 0.283745 17.3018 0.400374 17.3408C0.517004 17.3797 0.642926 17.381 0.760309 17.3444C0.877691 17.3077 0.980583 17.2351 1.05441 17.1368C3.8207 13.4546 7.98559 11.2785 12.5521 11.1067V12.6242C12.5521 13.724 13.1512 14.1142 13.6642 14.1143H13.6643C14.0379 14.1143 14.4169 13.9249 14.7904 13.5513L19.3177 9.02397C19.7577 8.58405 20 7.99725 20 7.37171C20 6.74612 19.7577 6.15932 19.3177 5.71936ZM18.4891 8.19534L13.9618 12.7227C13.8749 12.8096 13.803 12.8644 13.75 12.8977C13.736 12.8367 13.7239 12.747 13.7239 12.6242V10.5098C13.7239 10.1862 13.4616 9.92382 13.138 9.92382C10.5346 9.92382 8.04691 10.5203 5.74414 11.6966C4.09102 12.5411 2.57984 13.6779 1.30012 15.0317C2.15145 9.26233 7.1359 4.8196 13.138 4.8196C13.4616 4.8196 13.7239 4.55725 13.7239 4.23366V2.11913C13.7239 1.99635 13.736 1.90671 13.7499 1.84569C13.803 1.87901 13.8749 1.93385 13.9618 2.02069L18.4891 6.54803C18.7077 6.76667 18.8281 7.05917 18.8281 7.37171C18.8281 7.68421 18.7077 7.97671 18.4891 8.19534Z" fill="#676767"/>
</svg>
